<?xml version="1.0" standalone="no"?>
<!DOCTYPE svg PUBLIC "-//W3C//DTD SVG 20010904//EN"
 "http://www.w3.org/TR/2001/REC-SVG-20010904/DTD/svg10.dtd">
<svg version="1.0" xmlns="http://www.w3.org/2000/svg"
 width="720.000000pt" height="720.000000pt" viewBox="0 0 720.000000 720.000000"
 preserveAspectRatio="xMidYMid meet">
<metadata>
Created by potrace 1.11, written by Peter Selinger 2001-2013
</metadata>
<g transform="translate(0.000000,720.000000) scale(0.100000,-0.100000)"
fill="#000000" stroke="none">
<path d="M4808 7195 c-1 -2 -39 -6 -83 -9 -44 -4 -91 -8 -105 -11 -14 -2 -45
-7 -70 -10 -110 -14 -126 -16 -140 -20 -8 -2 -31 -7 -50 -10 -19 -3 -67 -12
-106 -21 -39 -8 -79 -17 -90 -19 -10 -2 -19 -4 -19 -5 0 -1 -7 -3 -15 -5 -8
-1 -60 -15 -115 -30 -55 -14 -107 -28 -115 -30 -37 -9 -282 -93 -335 -115 -11
-5 -65 -27 -120 -50 -345 -144 -749 -391 -1028 -628 -97 -83 -288 -269 -339
-331 -236 -285 -372 -529 -393 -706 -22 -187 29 -343 155 -465 98 -96 223
-152 390 -177 72 -10 341 -4 485 12 87 9 142 16 155 20 8 2 37 6 64 10 27 3
53 8 56 10 4 2 21 7 38 10 18 3 47 8 65 11 17 3 41 8 52 10 11 2 45 10 75 19
30 9 80 23 110 31 170 46 415 156 539 243 141 98 241 228 241 313 0 48 -20 96
-51 125 -30 27 -116 66 -128 58 -5 -3 -12 -1 -15 3 -14 23 310 39 379 20 137
-39 222 -147 203 -258 -13 -78 -58 -150 -148 -241 -47 -47 -100 -94 -118 -104
-18 -11 -32 -23 -32 -27 0 -4 -4 -8 -9 -8 -5 0 -51 -26 -102 -59 -102 -64
-272 -148 -414 -206 -92 -38 -397 -142 -438 -149 -12 -3 -22 -5 -22 -6 0 -3
-211 -55 -255 -64 -14 -2 -47 -9 -73 -15 -26 -6 -67 -14 -90 -17 -71 -10 -82
-12 -82 -14 0 -1 -13 -3 -30 -4 -16 -2 -55 -7 -85 -11 -85 -11 -116 -14 -240
-19 -63 -3 -117 -6 -120 -7 -3 -1 -9 -1 -13 0 -5 1 -59 3 -120 6 -107 4 -162
9 -217 20 -14 2 -40 7 -59 10 -49 8 -159 40 -206 60 -185 77 -280 161 -362
323 -29 56 -52 103 -52 105 1 1 -4 20 -9 42 -21 77 -24 101 -26 203 -3 111 10
196 45 307 13 39 23 72 24 75 25 86 213 406 264 450 4 3 19 23 35 45 17 22 38
49 48 60 9 11 31 36 48 55 95 107 305 310 414 401 16 13 34 29 40 34 6 6 45
38 86 70 41 33 77 62 80 65 3 3 18 14 33 23 16 10 36 25 45 32 9 8 28 23 42
35 l25 20 -40 -19 c-22 -11 -114 -56 -205 -100 -91 -44 -221 -113 -290 -152
-69 -40 -134 -77 -145 -83 -26 -15 -79 -49 -85 -56 -7 -7 -42 -29 -60 -37 -8
-4 -17 -9 -20 -12 -3 -3 -48 -35 -100 -70 -95 -64 -239 -174 -315 -241 -57
-50 -285 -276 -285 -283 0 -3 -14 -21 -30 -39 -94 -101 -256 -391 -276 -491
-2 -10 -6 -27 -9 -37 -6 -19 -13 -47 -22 -90 -3 -14 -7 -79 -9 -145 -3 -108 2
-155 30 -280 9 -44 70 -190 103 -248 94 -167 229 -292 404 -375 68 -32 222
-86 275 -96 16 -2 40 -7 54 -10 33 -8 78 -15 170 -26 71 -8 500 -6 565 3 17 2
61 8 100 12 38 3 72 8 75 10 3 2 29 6 59 10 30 4 63 9 75 11 12 2 35 6 51 9
17 3 44 8 60 12 17 3 37 8 45 9 28 5 75 15 115 26 22 5 51 12 65 15 88 15 372
99 545 161 248 88 362 136 545 230 98 51 289 160 300 172 3 3 23 17 45 31 113
74 320 255 377 331 13 17 30 39 40 48 15 17 91 129 93 140 2 7 44 100 58 128
12 25 16 169 5 213 -10 42 -38 92 -69 122 -26 24 -27 27 -9 27 12 0 49 -9 83
-20 213 -70 320 -193 318 -367 0 -35 -2 -67 -5 -72 -3 -4 -8 -22 -11 -40 -7
-38 -74 -182 -110 -235 -14 -20 -25 -39 -25 -42 0 -3 -5 -10 -10 -17 -6 -7
-30 -37 -53 -67 -127 -166 -321 -345 -522 -482 -102 -69 -282 -178 -294 -178
-5 0 -16 -6 -23 -13 -16 -16 -385 -198 -451 -222 -26 -10 -50 -22 -53 -26 -3
-5 -15 -9 -28 -9 -12 0 -26 -4 -32 -9 -8 -7 -109 -41 -309 -104 -27 -9 -61
-18 -75 -21 -36 -7 -60 -13 -100 -26 -42 -12 -357 -76 -420 -85 -25 -3 -52 -8
-60 -10 -8 -3 -37 -7 -65 -10 -27 -3 -61 -7 -74 -10 -13 -2 -49 -7 -80 -10
-31 -3 -72 -7 -91 -10 -36 -4 -131 -13 -230 -20 -314 -24 -879 -24 -1095 0
-22 2 -65 7 -95 10 -53 6 -99 12 -147 20 -13 2 -23 -1 -23 -6 0 -5 5 -9 12 -9
6 0 21 -9 32 -19 36 -33 194 -118 306 -165 120 -50 303 -108 418 -132 43 -9
86 -18 97 -21 11 -2 49 -8 85 -14 36 -5 83 -12 105 -15 22 -3 68 -7 102 -9 34
-1 65 -5 70 -8 10 -6 465 -6 476 0 4 3 34 6 66 8 32 2 76 6 98 10 22 3 59 8
83 10 35 4 214 34 285 49 11 2 72 17 135 32 63 15 117 28 120 29 3 1 32 9 65
19 33 10 65 19 70 21 6 1 17 4 25 7 8 3 76 27 150 52 74 26 144 51 155 56 11
5 45 19 75 31 79 30 377 177 385 189 3 5 15 10 25 10 10 0 20 3 22 8 2 4 48
34 103 66 55 32 121 74 148 92 26 19 52 34 57 34 6 0 10 4 10 8 0 5 12 15 28
23 15 8 29 17 32 20 3 3 41 32 85 65 44 32 96 73 115 91 19 17 49 42 65 54 33
25 271 262 320 319 158 181 314 435 360 585 104 335 -73 638 -427 731 -63 16
-77 19 -178 29 -67 7 -290 6 -345 0 -22 -3 -62 -7 -90 -10 -67 -6 -142 -17
-210 -32 -16 -3 -39 -7 -50 -8 -11 -2 -49 -11 -85 -20 -36 -9 -72 -18 -81 -20
-33 -7 -167 -47 -234 -71 -38 -14 -78 -27 -88 -29 -43 -9 -272 -138 -335 -189
-181 -144 -236 -278 -158 -381 24 -31 95 -72 136 -78 27 -4 37 -17 14 -18 -10
-1 -35 -3 -54 -5 -113 -14 -261 -13 -316 1 -119 31 -195 111 -202 215 -4 53 0
69 27 125 33 66 124 176 177 213 16 12 39 30 50 40 65 59 344 214 524 291 141
60 486 176 585 197 11 2 29 6 40 8 11 2 40 9 65 16 25 7 54 14 65 16 11 2 31
6 45 9 14 2 41 7 60 10 19 3 42 8 50 10 17 4 81 15 120 20 14 2 39 5 55 8 17
3 64 9 105 12 41 4 91 9 110 10 56 6 330 5 385 0 46 -4 94 -10 155 -18 198
-28 410 -125 511 -234 44 -46 107 -149 138 -223 38 -90 59 -214 55 -326 -4
-95 -5 -112 -19 -179 -24 -117 -144 -383 -217 -480 -49 -64 -78 -106 -78 -110
0 -3 -9 -16 -20 -28 -11 -12 -48 -56 -82 -97 -35 -41 -72 -84 -83 -96 -11 -12
-36 -39 -56 -60 -63 -68 -272 -264 -335 -314 -29 -23 -166 -133 -189 -153 -5
-4 -41 -30 -80 -57 -38 -28 -66 -50 -63 -50 19 0 363 170 470 231 36 22 69 39
72 39 4 0 23 11 44 24 20 13 87 54 147 92 61 37 112 70 115 73 6 8 41 29 60
38 8 4 21 13 28 20 8 7 35 27 60 45 99 67 288 225 386 322 115 116 186 193
186 206 0 4 4 10 9 12 31 11 173 240 221 355 77 184 104 345 84 508 -4 28 -8
64 -10 80 -1 17 -3 30 -4 30 -1 0 -3 10 -6 23 -7 37 -49 153 -79 217 -130 277
-375 455 -731 534 -96 21 -167 31 -254 37 -73 5 -374 5 -425 0 -22 -2 -76 -7
-120 -11 -44 -4 -89 -9 -100 -11 -11 -2 -38 -6 -60 -9 -46 -7 -80 -13 -80 -15
0 0 -18 -3 -40 -5 -40 -4 -72 -10 -103 -19 -9 -3 -35 -7 -57 -11 -22 -3 -64
-12 -95 -20 -30 -8 -67 -16 -82 -19 -15 -2 -31 -7 -36 -10 -5 -3 -22 -7 -38
-10 -16 -3 -76 -19 -134 -36 -111 -32 -130 -37 -157 -44 -91 -23 -454 -163
-591 -227 -48 -23 -96 -45 -107 -50 -37 -17 -149 -80 -235 -132 -447 -270
-728 -613 -718 -874 1 -41 6 -77 10 -79 4 -3 8 -14 8 -25 0 -10 5 -19 11 -19
5 0 8 -4 5 -9 -9 -15 77 -97 130 -125 l49 -25 -92 4 c-196 8 -371 84 -456 197
-61 80 -81 194 -52 303 23 85 95 228 168 331 101 144 347 381 512 495 28 19
52 37 53 42 2 4 10 7 17 7 7 0 15 3 17 8 4 10 137 92 149 92 5 0 9 4 9 9 0 5
12 14 28 20 15 6 47 22 72 37 45 27 257 134 380 192 90 42 196 83 325 126 61
20 124 41 140 47 17 6 39 12 50 14 11 3 63 16 115 30 103 27 397 89 470 99 25
3 70 10 100 16 30 5 75 12 100 14 25 3 59 7 75 10 17 3 64 7 105 11 41 3 86 7
100 10 31 5 173 15 310 22 223 10 825 3 895 -11 11 -2 58 -7 105 -11 47 -4 94
-9 105 -12 56 -12 65 -13 65 -6 0 5 -12 16 -28 25 -105 68 -136 85 -207 121
-44 23 -84 42 -90 43 -5 1 -43 16 -82 33 -40 16 -73 27 -73 24 0 -3 -6 -1 -12
5 -27 21 -376 107 -478 117 -19 2 -56 6 -83 10 -26 4 -64 9 -85 11 -44 6 -539
14 -544 9z m-961 -1839 c12 -4 32 -21 44 -38 44 -62 16 -143 -85 -242 -97 -96
-198 -150 -306 -163 -99 -12 -141 -7 -180 20 -70 47 -51 143 48 249 47 50 156
129 208 148 80 32 215 44 271 26z"/>
<path d="M5670 3549 c-19 -5 -39 -11 -45 -13 -5 -1 -30 -8 -55 -15 -101 -28
-248 -90 -290 -124 -58 -47 -86 -116 -62 -155 13 -19 72 -25 119 -13 45 12
138 71 193 123 225 210 233 221 140 197z"/>
<path d="M6440 3504 c-52 -14 -102 -27 -110 -29 -37 -8 -174 -67 -213 -91 -52
-33 -107 -93 -108 -119 -4 -56 12 -74 66 -79 89 -7 162 40 373 239 60 57 104
108 90 104 -2 0 -46 -12 -98 -25z"/>
<path d="M738 2895 c-213 -55 -339 -113 -402 -187 -34 -39 -37 -53 -27 -109 2
-15 60 -30 92 -24 44 7 131 51 168 84 17 14 45 39 63 54 68 59 206 197 200
200 -4 2 -46 -6 -94 -18z"/>
<path d="M6810 2713 c-30 -7 -63 -16 -74 -18 -47 -11 -186 -59 -231 -80 -111
-51 -177 -120 -170 -178 6 -43 18 -50 77 -51 77 0 149 41 266 149 94 87 194
186 191 189 -2 1 -29 -4 -59 -11z"/>
<path d="M4690 2686 c-47 -13 -110 -31 -140 -41 -30 -11 -57 -19 -60 -20 -26
-2 -151 -76 -186 -111 -37 -36 -44 -49 -44 -82 0 -46 13 -60 63 -65 64 -7 161
42 262 134 72 66 205 197 205 203 0 8 -1 8 -100 -18z"/>
<path d="M2645 2667 c-89 -27 -235 -87 -280 -115 -88 -55 -147 -140 -131 -190
8 -25 56 -50 90 -46 83 9 196 101 404 328 l43 47 -33 -3 c-18 -1 -60 -11 -93
-21z"/>
<path d="M3670 2613 c-14 -2 -36 -8 -50 -13 -14 -5 -36 -11 -50 -14 -83 -14
-272 -97 -322 -141 -63 -55 -81 -132 -36 -156 29 -16 97 -7 150 18 37 18 146
97 168 122 3 3 48 48 102 99 53 50 89 91 80 91 -10 -1 -28 -4 -42 -6z"/>
<path d="M5350 2389 c-19 -5 -45 -12 -58 -14 -52 -12 -190 -59 -242 -83 -61
-28 -113 -64 -147 -102 -27 -29 -25 -25 -27 -68 -6 -96 135 -82 271 27 69 54
253 231 253 242 0 10 -3 10 -50 -2z"/>
<path d="M1279 2386 c-3 -3 -20 -8 -39 -11 -79 -14 -250 -68 -319 -102 -128
-63 -186 -132 -161 -192 29 -72 154 -40 293 75 70 58 237 219 237 229 0 6 -5
7 -11 1z"/>
<path d="M6174 1952 c-86 -22 -238 -74 -279 -95 -105 -52 -167 -118 -163 -173
3 -41 25 -54 87 -52 85 3 166 58 364 249 96 94 95 99 -9 71z"/>
<path d="M1735 1878 c-38 -10 -77 -20 -85 -22 -8 -2 -42 -14 -75 -26 -33 -12
-64 -23 -70 -24 -14 -3 -96 -44 -119 -59 -62 -39 -107 -107 -96 -147 17 -70
134 -57 246 26 71 53 261 230 275 256 11 21 15 21 -76 -4z"/>
<path d="M3167 1810 c-91 -24 -77 -20 -172 -52 -38 -12 -71 -26 -73 -30 -2 -5
-10 -8 -19 -8 -21 0 -129 -77 -147 -105 -22 -34 -28 -79 -13 -99 17 -23 78
-30 126 -15 76 24 139 72 315 241 99 96 99 99 -17 68z"/>
<path d="M4500 1594 c-30 -8 -65 -17 -77 -19 -53 -12 -203 -69 -253 -98 -142
-79 -180 -197 -68 -210 43 -5 126 26 183 69 70 53 285 255 285 268 0 7 -2 7
-70 -10z"/>
<path d="M6744 1384 c-82 -20 -212 -59 -221 -67 -7 -5 -13 -7 -13 -4 0 13
-159 -74 -192 -106 -109 -103 -39 -195 105 -138 63 25 116 67 285 228 96 92
100 102 36 87z"/>
<path d="M625 1293 c-33 -7 -91 -24 -130 -35 -38 -12 -72 -22 -75 -23 -78 -24
-177 -80 -222 -126 -44 -45 -49 -54 -46 -87 9 -87 132 -77 262 23 74 56 296
270 275 264 -2 -1 -31 -8 -64 -16z"/>
<path d="M2499 1256 c-2 -2 -24 -7 -49 -11 -76 -11 -309 -94 -365 -129 -86
-56 -126 -110 -115 -156 19 -79 153 -55 283 52 59 49 265 248 256 248 -3 0 -8
-2 -10 -4z"/>
<path d="M5130 1225 c-274 -70 -430 -162 -430 -255 0 -44 21 -62 73 -62 42 0
151 39 167 60 3 4 27 25 54 47 79 63 250 232 235 232 -8 0 -52 -10 -99 -22z"/>
<path d="M3520 808 c-14 -5 -40 -12 -59 -14 -18 -2 -42 -9 -52 -15 -10 -5 -19
-7 -19 -4 0 2 -24 -5 -52 -16 -29 -12 -62 -23 -73 -25 -70 -13 -233 -129 -236
-167 0 -6 -2 -20 -4 -29 -6 -34 29 -62 77 -62 89 0 180 61 380 256 78 75 88
95 38 76z"/>
<path d="M6963 583 c-216 -60 -313 -101 -382 -159 -74 -64 -87 -134 -29 -159
54 -22 170 21 248 92 19 17 46 41 60 53 40 34 178 168 184 179 8 13 -21 10
-81 -6z"/>
<path d="M1055 559 c-152 -37 -322 -105 -362 -144 -8 -8 -19 -18 -26 -22 -29
-19 -50 -55 -52 -92 -2 -33 2 -41 24 -52 59 -29 156 3 256 84 68 55 262 247
250 246 -5 0 -46 -9 -90 -20z"/>
<path d="M5556 523 c-1 -2 -38 -12 -82 -24 -43 -11 -83 -22 -89 -23 -5 -2 -23
-8 -38 -14 -16 -7 -30 -12 -33 -12 -3 0 -34 -14 -71 -31 -89 -42 -163 -115
-163 -163 0 -91 126 -86 255 12 61 46 120 100 226 205 57 56 57 57 28 55 -17
-1 -31 -4 -33 -5z"/>
<path d="M2120 389 c-241 -64 -360 -114 -429 -180 -78 -75 -66 -149 24 -154
48 -3 152 49 229 115 59 50 226 215 226 222 0 9 -4 9 -50 -3z"/>
<path d="M4182 315 c-283 -78 -426 -176 -400 -272 7 -26 15 -33 41 -38 95 -18
194 43 402 247 102 100 101 103 -43 63z"/>
</g>
</svg>
