<?xml version="1.0" encoding="UTF-8" standalone="no"?>
<svg
   xmlns:dc="http://purl.org/dc/elements/1.1/"
   xmlns:cc="http://creativecommons.org/ns#"
   xmlns:rdf="http://www.w3.org/1999/02/22-rdf-syntax-ns#"
   xmlns:svg="http://www.w3.org/2000/svg"
   xmlns="http://www.w3.org/2000/svg"
   xmlns:sodipodi="http://sodipodi.sourceforge.net/DTD/sodipodi-0.dtd"
   xmlns:inkscape="http://www.inkscape.org/namespaces/inkscape"
   version="1.1"
   x="0px"
   y="0px"
   viewBox="0 0 82.666 62.646999"
   enable-background="new 0 0 100 100"
   xml:space="preserve"
   id="svg14"
   sodipodi:docname="filter.svg"
   width="82.666"
   height="62.646999"
   inkscape:version="0.92.3 (2405546, 2018-03-11)"><metadata
     id="metadata20"><rdf:RDF><cc:Work
         rdf:about=""><dc:format>image/svg+xml</dc:format><dc:type
           rdf:resource="http://purl.org/dc/dcmitype/StillImage" /><dc:title></dc:title></cc:Work></rdf:RDF></metadata><defs
     id="defs18" /><sodipodi:namedview
     pagecolor="#ffffff"
     bordercolor="#666666"
     borderopacity="1"
     objecttolerance="10"
     gridtolerance="10"
     guidetolerance="10"
     inkscape:pageopacity="0"
     inkscape:pageshadow="2"
     inkscape:window-width="3000"
     inkscape:window-height="1955"
     id="namedview16"
     showgrid="false"
     fit-margin-top="0"
     fit-margin-left="0"
     fit-margin-right="0"
     fit-margin-bottom="0"
     inkscape:zoom="1.888"
     inkscape:cx="-85.785644"
     inkscape:cy="19.48"
     inkscape:window-x="-13"
     inkscape:window-y="-13"
     inkscape:window-maximized="1"
     inkscape:current-layer="svg14" /><g
     id="g8"
     transform="translate(-8.667,-19.333)"><path
       d="m 91.333,25.354 c 0,3.325 -2.695,6.021 -6.021,6.021 H 14.688 c -3.325,0 -6.021,-2.695 -6.021,-6.021 v 0 c 0,-3.325 2.695,-6.021 6.021,-6.021 h 70.625 c 3.325,0 6.02,2.696 6.02,6.021 z"
       id="path2"
       inkscape:connector-curvature="0" /><path
       d="m 81.333,50.657 c 0,3.325 -2.695,6.021 -6.021,6.021 H 24.688 c -3.325,0 -6.021,-2.695 -6.021,-6.021 v 0 c 0,-3.325 2.695,-6.021 6.021,-6.021 h 50.625 c 3.325,0 6.02,2.696 6.02,6.021 z"
       id="path4"
       inkscape:connector-curvature="0" /><path
       d="m 66.333,75.959 c 0,3.325 -2.695,6.021 -6.021,6.021 H 39.688 c -3.325,0 -6.021,-2.695 -6.021,-6.021 v 0 c 0,-3.325 2.695,-6.021 6.021,-6.021 h 20.625 c 3.325,0 6.02,2.696 6.02,6.021 z"
       id="path6"
       inkscape:connector-curvature="0" /></g></svg>