<?xml version="1.0" encoding="UTF-8" standalone="no"?>
<svg
   xmlns:dc="http://purl.org/dc/elements/1.1/"
   xmlns:cc="http://creativecommons.org/ns#"
   xmlns:rdf="http://www.w3.org/1999/02/22-rdf-syntax-ns#"
   xmlns:svg="http://www.w3.org/2000/svg"
   xmlns="http://www.w3.org/2000/svg"
   xmlns:sodipodi="http://sodipodi.sourceforge.net/DTD/sodipodi-0.dtd"
   xmlns:inkscape="http://www.inkscape.org/namespaces/inkscape"
   version="1.1"
   x="0px"
   y="0px"
   viewBox="0 0 82.007355 82.007301"
   id="svg10"
   sodipodi:docname="find.svg"
   width="82.007355"
   height="82.007301"
   inkscape:version="0.92.3 (2405546, 2018-03-11)">
  <metadata
     id="metadata16">
    <rdf:RDF>
      <cc:Work
         rdf:about="">
        <dc:format>image/svg+xml</dc:format>
        <dc:type
           rdf:resource="http://purl.org/dc/dcmitype/StillImage" />
        <dc:title></dc:title>
      </cc:Work>
    </rdf:RDF>
  </metadata>
  <defs
     id="defs14" />
  <sodipodi:namedview
     pagecolor="#ffffff"
     bordercolor="#666666"
     borderopacity="1"
     objecttolerance="10"
     gridtolerance="10"
     guidetolerance="10"
     inkscape:pageopacity="0"
     inkscape:pageshadow="2"
     inkscape:window-width="3000"
     inkscape:window-height="1955"
     id="namedview12"
     showgrid="false"
     fit-margin-top="0"
     fit-margin-left="0"
     fit-margin-right="0"
     fit-margin-bottom="0"
     inkscape:zoom="1.888"
     inkscape:cx="49.213423"
     inkscape:cy="28.503656"
     inkscape:window-x="-13"
     inkscape:window-y="-13"
     inkscape:window-maximized="1"
     inkscape:current-layer="svg10" />
  <g
     transform="translate(-8.9963225,-961.35852)"
     id="g4">
    <path
       style="color:#000000;text-indent:0;text-transform:none;direction:ltr;baseline-shift:baseline;display:inline;overflow:visible;visibility:visible;fill:#000000;fill-opacity:1;enable-background:accumulate"
       d="m 37.996322,961.35852 c -15.94509,0 -28.9999995,13.0548 -28.9999995,29 0,15.94508 13.0548695,28.99998 28.9999995,28.99998 5.81229,0 11.22936,-1.7418 15.78125,-4.7188 l 26.96875,26.9688 c 2.34293,2.343 6.15707,2.3432 8.5,0 2.34321,-2.3429 2.34307,-6.1569 0,-8.5 l -26.96875,-26.9688 c 2.97201,-4.5493 4.71875,-9.97418 4.71875,-15.78118 0,-15.9452 -13.05491,-29 -29,-29 z m 0,12 c 9.45971,0 17,7.5402 17,17 0,9.4596 -7.54033,16.99998 -17,16.99998 -9.45967,0 -17,-7.54038 -17,-16.99998 0,-9.4598 7.54029,-17 17,-17 z"
       marker="none"
       visibility="visible"
       display="inline"
       overflow="visible"
       id="path2"
       inkscape:connector-curvature="0" />
  </g>
</svg>
