<svg xmlns:dc="http://purl.org/dc/elements/1.1/" xmlns:cc="http://creativecommons.org/ns#" xmlns:rdf="http://www.w3.org/1999/02/22-rdf-syntax-ns#" xmlns:svg="http://www.w3.org/2000/svg" xmlns="http://www.w3.org/2000/svg" xmlns:sodipodi="http://sodipodi.sourceforge.net/DTD/sodipodi-0.dtd" xmlns:inkscape="http://www.inkscape.org/namespaces/inkscape" version="1.1" x="0px" y="0px" viewBox="0 0 100 125"><g transform="translate(0,-952.36218)"><path style="text-indent:0;text-transform:none;direction:ltr;block-progression:tb;baseline-shift:baseline;color:#000000;enable-background:accumulate;" d="m 37.996322,961.35852 c -15.94509,0 -28.9999995,13.0548 -28.9999995,29 0,15.94508 13.0548695,28.99998 28.9999995,28.99998 5.81229,0 11.22936,-1.7418 15.78125,-4.7188 l 26.96875,26.9688 c 2.34293,2.343 6.15707,2.3432 8.5,0 2.34321,-2.3429 2.34307,-6.1569 0,-8.5 l -26.96875,-26.9688 c 2.97201,-4.5493 4.71875,-9.97418 4.71875,-15.78118 0,-15.9452 -13.05491,-29 -29,-29 z m 0,12 c 9.45971,0 17,7.5402 17,17 0,9.4596 -7.54033,16.99998 -17,16.99998 -9.45967,0 -17,-7.54038 -17,-16.99998 0,-9.4598 7.54029,-17 17,-17 z" fill="#000000" fill-opacity="1" marker="none" visibility="visible" display="inline" overflow="visible"/></g><text x="0" y="115" fill="#000000" font-size="5px" font-weight="bold" font-family="'Helvetica Neue', Helvetica, Arial-Unicode, Arial, Sans-serif">Created by Three Six Five</text><text x="0" y="120" fill="#000000" font-size="5px" font-weight="bold" font-family="'Helvetica Neue', Helvetica, Arial-Unicode, Arial, Sans-serif">from the Noun Project</text></svg>