<?xml version="1.0" encoding="UTF-8"?><!DOCTYPE svg PUBLIC "-//W3C//DTD SVG 1.1//EN" "http://www.w3.org/Graphics/SVG/1.1/DTD/svg11.dtd"><svg xmlns="http://www.w3.org/2000/svg" xmlns:xlink="http://www.w3.org/1999/xlink"><defs><style type="text/css" id="style2">.fil0{fill:#000}</style></defs><symbol id="backArrow" viewBox="0 0 62.032 52.254"><path d="M62.032 26.178a4 4 0 0 0-4-4h-43.87l16.26-15.16a4 4 0 1 0-5.46-5.84l-23.69 22.07a4 4 0 0 0 0 5.85l23.69 22.08a4.001 4.001 0 0 0 5.46-5.85l-16.26-15.15h43.87a4 4 0 0 0 4-4z"/><text style="line-height:1.25;-inkscape-font-specification:&apos;Arial Narrow&apos;" x="-6.786" y="92.174" font-weight="400" font-size="40" font-family="Arial Narrow" letter-spacing="0" word-spacing="0"/></symbol><symbol id="drought" viewBox="0 0 90.459 88.929"><switch transform="translate(0 -1.418)"><g><path d="M90.419 54.943a75.502 75.502 0 0 1-3.528-.035L85.76 49.58c2.502.036 4.653.069 4.653.069l.046-3.015-10.974-.164-.24-1.75 2.743-1.479 8.449.378V41.36L82.498 41l-.701-2.941c2.057.133 4.1.088 4.677.071.363.253 3.964 2.459 3.964 2.459v-1.873l-1.876-.969c1.273-.465 1.815-.625 1.876-.672V35.07l-2.646-1.186-2.239-1.054 4.883-.04.004-1.507-90.436-.136L0 32.654l11.391-.022-5.15 3.122-.187-.201-6.051-1.791v1.652l4.616 1.322-3.164 1.917-1.452-.23v1.485l1.225.236s2.178.78 5.177 1.297l-2.041.975-4.361.021.005 2.208s4.08.033 4.354.032c.192.049 4.443 1.145 6.97 1.794l-1.973 2.455c-1.398-.042-4.785-.877-7.548-1.757l-1.807-.537v2.353l1.191.358c.765.245 2.442.76 4.196 1.18-2.563.616-5.388 1.358-5.388 1.358v2.198l9.9-2.313 4.159.765-1.225 3.132a127.361 127.361 0 0 1-5.555-.206l-7.279-.499v3.759l6.989.443c.185.017 4.444.371 8.566.262.053 1.029.163 2.412.258 3.518L.002 64.002v3.759s8.287-.547 13.527-.896l-6.183 6.446-7.345 6.634v1.218l.265 4.663 1.27-1.513 5.072-4.698c2.577.198 9.208.504 14.215-1.049 4.624-1.437 8.37-4.111 10.183-5.637 1.007.456 3.418 1.466 6.927 2.441L32.35 90.347h4.993l4.265-14.076a64.595 64.595 0 0 0 11.954 1.398l.91 12.678h4.12l-1.247-12.704c.255-.01.509-.016.767-.028l2.132-.098c3.882-.174 7.987-.361 12.312-.905.297.281.574.547.802.771 2.872 2.829 11.186 9.726 17.079 12.964v-5.126c-4.8-2.637-9.899-6.637-13.135-9.354 4.416-.837 8.288-1.556 13.135-3.669V68.16c-5.602 2.443-11.588 3.74-16.604 4.482a541.799 541.799 0 0 0-6.129-5.57c1.423-.283 2.393-.499 2.507-.524l11.04-2.97c1.388.702 5.192 2.281 9.186 3.255v-4.137c-4.62-1.127-8.018-2.756-8.054-2.777 0 0-2.249-1.615-3.102-2.503 1.25.061 6.483.596 11.173.541m-74.061-5.184c2.021-.079 7.583-.463 11.444-2.281a17.652 17.652 0 0 0 2.303 1.889 29.72 29.72 0 0 1-1.154 1.094l-1.141.453c-.033.014-3.36 1.305-10.36 1.627-.713.054-1.464.086-2.219.102zm2.452-12.967c.739.085 2.425.262 3.811.279l-1.693 4.044-5.107-.776a2659 2659 0 0 1 2.989-3.547zM10.898 36.7a36.427 36.427 0 0 1-2.518-.482l4.852-2.94c1.178.494 2.395.956 3.764 1.319l-3.389 2.69a73.426 73.426 0 0 1-2.709-.587zm8.012-1.698c1.457.249 3.114.371 5.062.316l-1.7 3.251c-1.639-.056-3.622-.306-3.646-.309-.032-.004-.062.012-.095.012l.007-.036c-.027-.005-1.381-.254-2.99-.566zm33.467-2.26l-1.951 1.524-.595.176c-1.303.385-4.321.426-5.512.408l.001-2.129zm25.712 27.784l-7.44 2.002-2.014-2.879 6.616-2.08zm-40.423.729l-1.075-.463c-2.277-1.326-4.423-3.661-5.596-5.064a30.984 30.984 0 0 0 1.759-1.708c1.145.236 3.38.618 6.764.783a46.9 46.9 0 0 0 2.662.06c.554.704 1.549 1.734 3.111 2.582 1.215.66 2.847 1.173 4.174 1.522-.561 1.09-1.266 2.713-2.166 5.104-5.513-1.077-9.573-2.791-9.633-2.816zm-6.214-18.537l-.135.048c-.791-.93-1.333-2.181-1.699-3.437 1.071-.175 2.206-.4 3.359-.694 1.496.515 4.472.964 6.257 1.201l-3.59 4.092c-2.038-.515-3.797-1.082-3.828-1.091zm-7.383-4.333l1.481-2.832c.399-.02 1.054-.062 1.846-.148.051.649.155 1.599.367 2.67a46.5 46.5 0 0 1-3.694.31zm4.822-3.179c1.668-.264 3.6-.722 5.171-1.509l3.061 1.598c-1.363.635-3.411 1.562-4.324 1.833-1.208.317-2.41.555-3.539.735a22.653 22.653 0 0 1-.369-2.657zm15.262 1.148c.152.003 2.678.043 4.651-.199-.078.278-.156.553-.226.858l-.319 1.198-1.073.161c-2.405.37-2.906.447-6.377.141-.134-.016-3.067-.356-5.363-.806a110.96 110.96 0 0 0 3.484-1.598c.353.018 5.223.245 5.223.245zm14.276.488l.968 2.448-4.04.312c-1.645-.209-4.308-.667-5.606-1.141l.297-1.111c.126-.543.228-.977.386-1.337 2.136.895 5.782.957 7.995.829zm1.599-.054c2.003-.118 5.793-.547 7.405-1.991l3.577 1.243a15.297 15.297 0 0 1-2.813 1.68c-1.493.675-4.524 1.212-4.834 1.266l-2.393.184c-.244-.616-.654-1.651-.942-2.382zm3.081 13.747l-9.039-.588.373-1.564c1.725.022 5.536-.081 9.731-1.171.874.664 2.134 1.778 3.264 2.811zM47.415 39.864l1.342-.202c1.236.59 3.74 1.042 5.271 1.274l-2.147 3.15-.411.081a48.17 48.17 0 0 1-4.906.632l.53-4.886c.104-.016.209-.033.321-.049zm8.337 1.219l1.77-.136 3.453 4.66c-3.229.552-5.918.54-6.916.507l-1.016-1.058zm8.925 3.702l-.034-.024-.512.143c-.513.143-1.02.266-1.521.378l-3.313-4.472 4.081-.314 5.905 1.701-4.606 2.588zm-23.625-4.737c2.284.194 3.306.208 4.501.077l-.517 4.77a33.85 33.85 0 0 1-3.324-.013l.021-.049-1.602-.086c-.8-.043-1.799-.212-2.824-.43zm-.47 7.016c4.358.415 9.075-.287 10.711-.567l1.021 1.064-.603 2.531-4.01 1.011c-2.641.687-4.594.854-8.038.688a52.729 52.729 0 0 1-3.047-.234c2.329-2.563 3.434-3.837 3.966-4.493zm11.495 9.379l-.088.021c-.949-.196-3.667-.807-5.26-1.67a7.646 7.646 0 0 1-.478-.287 28.565 28.565 0 0 0 2.209-.486c.001-.002 3.55-.896 4.473-1.128.277.018 4.019.262 6.873.446l-3.773 3.902c-2.158-.255-3.512-.662-3.531-.668zm11.786-2.962l6.016-.712c.479.422 1.477 1.297 2.792 2.451-2.41.757-5.899 1.854-6.582 2.067l-6.04.139 3.814-3.945zm5.652-4.623c-1.107-1.025-2.448-2.233-3.51-3.09l4.302-2.418 6.752 2.067.162 1.179zm3.942-6.908a15908.7 15908.7 0 0 1 6.936-3.278l.604 2.535-3.608 1.946zm-2.033-.706l-4.876-1.403c.815-.212 1.646-.466 2.271-.748 1.578-.715 3.097-1.751 3.9-2.503 1.211.282 3.604.803 6.105 1.157zm1.326-6.196l-4.617-1.604.086-.659 6.785.018.373 2.816a80.572 80.572 0 0 1-2.627-.571zm-6.154-1.487c-.585.751-2.631 1.264-4.732 1.538l-1.86-2.336 6.694.018zm-6.517 1.715c-.36.024-.708.041-1.037.05l-.003-.037c-.271.024-.58.043-.903.059l-.294.007.003.005c-1.801.07-4.155-.002-5.845-.41l2.819-2.202 3.253.009zm-17.266-.492l-3.75-.176-3.661-1.912 7.412.02zm-14.156-1.073l-.581.013-3.037.068-.001-.016c-.212.013-.396.011-.601.02l.279-1.129 7.913.021c-1.251.501-2.686.82-3.972 1.023zm-4.283 6.17a46.841 46.841 0 0 0 3.737-.332c.365 1.304.906 2.649 1.705 3.75l-4.284 1.524-3.033-.461zm7.116 5.223c1.005.314 3.882 1.173 6.411 1.625a331.194 331.194 0 0 1-3.996 4.447c-.812-.146-1.259-.261-1.269-.263l-.882-.237-.04.044c-2.006-1.3-3.487-3.033-4.318-4.16l4.094-1.456zM19.667 63.717a149.207 149.207 0 0 1-.35-4.496c4.22-.299 7.029-.924 8.555-1.355 1.173 1.435 3.455 3.969 6.096 5.715l-4.374 5.237c-2.815-.974-7.267-3.496-9.927-5.101zm17.831 1.516c2.703 1.018 9.371 3.19 16.865 3.409a32.61 32.61 0 0 0-.059 1.907c0 1.364.091 2.478.212 3.362-10.138-.102-17.887-2.758-20.937-3.987 1.346-1.611 3.149-3.771 3.919-4.691zm18.867-.317h-.004c-2.06.05-4.094-.099-6.024-.352 1.131-2.952 1.815-4.289 2.171-4.878 1.257.299 3.753.774 6.965.768l5.954-.136c.391.561 1.317 1.888 2.064 2.953-2.669.538-7.705 1.47-11.128 1.548zm27.382-10.302c-1.386-.068-4.801-.233-7.618-.368l-3.574-3.138 5.597-1.644 4.518.068 1.077 5.082zm3.431-19.353l1.684.709c-.598.318-1.318.604-1.964.604v.037l-.224.008c-.028.001-2.814.095-5.243-.095l-.003-.009-.016.007c-.069-.006-.141-.01-.211-.017-1.404-.122-2.903-.348-4.267-.591l-.411-3.107 5.468.015zm-64.013-2.598l-.29 1.171c-2.99-.017-5.174-.501-7.14-1.191zM6.537 37.334c.742.183 2.728.656 4.077.843 1.461.367 4.759 1 6.511 1.33l-1.112 1.32-.777-.025c-4.126-.132-4.374-.14-8.403-.817a45.6 45.6 0 0 1-3.473-.725l3.177-1.926zm.197 5.619l2.275-1.087c1.986.297 2.957.34 5.765.43l-.667.792-.053-.008-.407.507-.763.95zm4.842 6.82l3.426-4.264 9.962 1.512c.25.389.683 1.004 1.255 1.71-3.945 1.595-9.667 1.783-10.511 1.803zm8.131 25.194c-3.006.933-6.851 1.084-9.714 1.031l.091-.097 8.778-9.15c2.161 1.286 5.507 3.18 8.345 4.367-1.744 1.263-4.407 2.888-7.5 3.849zm40.369-1.214l-1.755.081c-.179-1.079-.339-2.852-.173-5.339a64.93 64.93 0 0 0 4.842-.583c1.096.978 3.554 3.174 5.903 5.313-2.991.266-5.921.398-8.817.528z"/><circle cx="45.36" cy="10.218" r="3.068"/><path d="M49.653 4.795l-1.376 1.376a.753.753 0 0 0 1.065 1.065l1.376-1.376a.752.752 0 1 0-1.065-1.065zM41.351 13.096l-1.376 1.377a.753.753 0 0 0 1.065 1.065l1.376-1.376a.754.754 0 0 0-1.065-1.066zM48.216 13.125a.752.752 0 0 0 0 1.065l1.377 1.376a.753.753 0 1 0 1.065-1.066l-1.377-1.376a.752.752 0 0 0-1.065.001zM39.922 4.83a.753.753 0 0 0 0 1.065l1.376 1.376a.753.753 0 1 0 1.065-1.066L40.987 4.83a.751.751 0 0 0-1.065 0zM44.598 2.171v3.755a.752.752 0 1 0 1.506 0V2.171a.752.752 0 1 0-1.506 0zM44.598 14.802v4.506a.752.752 0 1 0 1.506 0v-4.506a.752.752 0 1 0-1.506 0zM49.975 9.462a.753.753 0 0 0 0 1.507h4.508a.754.754 0 1 0 0-1.507zM36.238 9.462a.753.753 0 1 0 0 1.507h4.506a.753.753 0 1 0 0-1.507z"/></g></switch></symbol><symbol id="dustAndHaze" viewBox="-17.997 -18 100.001 100"><path d="M30.121 26.62c-.274.242-.554.48-.813.738-.03.029-.053.057-.083.086a20.24 20.24 0 0 0-5.903 14.279h-3.704c0-3.906.959-7.582 2.623-10.838a17.327 17.327 0 0 0-5.83-1.026c-6.865 0-12.808 3.91-15.756 9.608.421-.021.836-.06 1.26-.06 8.105 0 15.592 4.284 19.759 11.122a17.602 17.602 0 0 1 10.792 3.257c.314-.228.637-.438.962-.638a17.507 17.507 0 0 1 16.631-11.89c6.558 0 12.54 3.726 15.546 9.377a17.73 17.73 0 0 1 2.047-.117c5.273 0 10.001 2.342 13.227 6.033a14.303 14.303 0 0 0 1.125-5.576c0-7.928-6.431-14.355-14.359-14.355-.817 0-1.616.084-2.397.21-2.647-8.484-10.305-14.752-19.51-15.354v.016c-.484-.034-.969-.076-1.461-.076-.231 0-.46.025-.691.037v.004c-.488.001-.965.042-1.446.076a23.969 23.969 0 0 0-2.138.307c-.047.005-.098.016-.145.023-.607.124-1.201.284-1.79.456-.194.063-.384.117-.573.178a27.27 27.27 0 0 0-1.39.505c-.181.074-.363.146-.546.23a18.84 18.84 0 0 0-1.351.646c-.235.12-.463.246-.691.372-.311.182-.619.367-.923.562a23.306 23.306 0 0 0-1.845 1.294c-.214.166-.419.34-.627.514z" fill="#231f20"/><circle cx="48.325" cy="14.537" r="3.316" fill="#231f20"/><path d="M45.273-7.037a3.319 3.319 0 1 0 .002-6.638 3.319 3.319 0 0 0-.002 6.638zM52.987-2.1a3.32 3.32 0 1 0 0-6.64 3.322 3.322 0 0 0-3.316 3.32 3.319 3.319 0 0 0 3.316 3.32zM73.977 26.754a3.32 3.32 0 0 0 0 6.64 3.322 3.322 0 0 0 3.32-3.32 3.323 3.323 0 0 0-3.32-3.32zM78.686-6.802a3.32 3.32 0 0 0 0-6.637 3.319 3.319 0 1 0 0 6.637zM37.829 1.957a3.318 3.318 0 1 0 .004-6.636 3.318 3.318 0 0 0-.004 6.636zM65.024 4.381a3.32 3.32 0 1 0 0-6.64 3.322 3.322 0 0 0-3.316 3.32 3.319 3.319 0 0 0 3.316 3.32zM71.51 19.532a3.319 3.319 0 1 0 .002-6.636 3.319 3.319 0 0 0-.002 6.636zM-7.472 28.024a3.32 3.32 0 0 0 3.316-3.32 3.316 3.316 0 0 0-3.316-3.316 3.319 3.319 0 0 0 0 6.636zM-1.328-11.367a3.316 3.316 0 1 0 0-6.633 3.318 3.318 0 1 0 0 6.633zM.567 4.196a3.315 3.315 0 0 0 3.316 3.317A3.314 3.314 0 0 0 7.2 4.196a3.316 3.316 0 1 0-6.633 0z" fill="#231f20"/><circle cx="-14.678" cy=".49" r="3.319" fill="#231f20"/><path d="M4.654 14.917a3.317 3.317 0 1 0 0 6.637 3.317 3.317 0 0 0 3.32-3.313 3.322 3.322 0 0 0-3.32-3.324zM24.241-2.749a3.317 3.317 0 0 0 3.316-3.32 3.322 3.322 0 0 0-3.316-3.32 3.322 3.322 0 0 0-3.32 3.32 3.318 3.318 0 0 0 3.32 3.32zM15.147 6.587a3.318 3.318 0 1 0 0-6.637 3.318 3.318 0 1 0 0 6.637zM24.793 12.066a3.319 3.319 0 1 0 6.638-.004 3.319 3.319 0 0 0-6.638.004zM67.65 54.223c-1.497 0-2.934.244-4.282.68-1.704-5.742-7.014-9.939-13.311-9.939-6.564 0-12.052 4.562-13.502 10.683a13.92 13.92 0 0 0-4.087 3.045c-2.539-2.741-6.155-4.468-10.185-4.468-.922 0-1.822.096-2.695.266-3.066-6.71-9.82-11.377-17.676-11.377-10.739 0-19.444 8.706-19.444 19.444C-17.531 73.296-8.826 82 1.913 82H67.65c7.671 0 13.889-6.22 13.889-13.889 0-7.673-6.218-13.888-13.889-13.888z" fill="#231f20"/></symbol><symbol id="earthquakes" viewBox="0 0 89.903 76.549"><switch transform="translate(-.217 -13.419)"><g><path d="M43.748 73.071l-18.523-6.104 20.064-7.973-.383.053-25.289 7.763 16.121 6.081S29.825 75.969.78 89.938h15.993l12.291-7.685 9.495 7.685h12.046l-18.397-9.65zM61.966 67.613l12.511 5.668-15.516 7.033 16.836 9.654 14.323-.03-24.96-9.965 13.245-6.918zM5.512 29.274h2.999v2.998H5.512zM9.35 21.298l-1.682-2.481 2.48-1.682 1.683 2.482zM15.095 13.772l1.682 2.48-2.48 1.68-1.682-2.48zM4.56 23.339h2.996v2.997H4.56zM14.22 33.348h2.998v2.991H14.22zM13.54 27.375h2.998v2.998H13.54zM23.737 22.44l-1.682-2.481 2.48-1.681 1.682 2.48zM28.681 19.078L27 16.597l2.481-1.683 1.682 2.481zM18.746 25.76l-1.682-2.48 2.48-1.682 1.682 2.48zM14.964 39.245h2.998v2.985h-2.998zM82.574 28.922h3v2.997h-3zM79.251 19.262l1.68-2.481 2.482 1.68-1.68 2.481zM78.471 15.102l-2.484-1.683-1.678 2.481 2.477 1.683zM83.472 23.016h2.993v2.997h-2.993zM74.183 32.997h2.994v2.993h-2.994zM74.86 27.023h2.998v2.998H74.86zM67.662 22.087l-2.478-1.681 1.683-2.48 2.477 1.681zM62.715 18.726l-2.476-1.68 1.682-2.48 2.476 1.68zM70.172 23.728l1.682-2.481 2.48 1.681-1.683 2.481zM73.436 38.895h2.999v2.984h-2.999zM65.466 51.793h-.163"/><path d="M65.466 51.793h-.163l2.486-19.712-15.876-10.738-3.651 2.353-.161-.105-6.351-4.095-.817.554-16.718 11.308 2.58 20.435H.217v2.99h89.732v-2.99zM34.944 32.286l-1.562 19.507H29.81c-.564-4.46-2.223-17.602-2.396-18.986l14.376-9.725 3.713 2.395z"/></g></switch></symbol><symbol id="filter" viewBox="0 0 82.666 62.647"><path d="M82.666 6.021a6.02 6.02 0 0 1-6.021 6.021H6.021A6.02 6.02 0 1 1 6.021 0h70.625a6.02 6.02 0 0 1 6.02 6.021zM72.666 31.324a6.02 6.02 0 0 1-6.021 6.021H16.021a6.02 6.02 0 1 1 0-12.042h50.625a6.02 6.02 0 0 1 6.02 6.021zM57.666 56.626a6.02 6.02 0 0 1-6.021 6.021H31.021a6.02 6.02 0 1 1 0-12.042h20.625a6.02 6.02 0 0 1 6.02 6.021z"/></symbol><symbol id="floods" viewBox="0 0 1001.5 778.731"><style type="text/css" id="style2">.st0{stroke:#b4b4b5;stroke-miterlimit:10}</style><path class="st0" d="M.6 422.48c0-7.5 4.1-14.3 10.7-17.7 31.3-16.4 128.4-61.1 254.2-61.1 190 0 261.8 108.9 446.9 111.2 119.4 1.5 214.7-34.2 259.8-54.9 13.2-6.1 28.3 3.6 28.4 18.1l.3 264.4c.1 41.5-33.5 75.1-75 75.1h-850c-41.4 0-74.9-33.5-75-74.9z" id="path4" stroke="#b4b4b5" stroke-miterlimit="10"/><path class="st0" d="M387.1 284.68c38.5 10.2 72.7 24.3 106.5 38.7l12.1-38.6 57.1 14.9 57.6 15.1-15.1 50.3c33.4 9.2 70 15.4 112.7 15.9l19.6-72.1 144.9 37.9L640.3 1.48l.1-.5-.7.4L259 183.68l145.2 38z" id="path6" stroke="#b4b4b5" stroke-miterlimit="10"/><path class="st0" d="M265.5 320.68c190 0 261.8 108.9 446.9 111.2 167.9 2.1 288.1-69.2 288.1-69.2l.5 395v0l-.5-424s-120.2 71.3-288.1 69.2c-185.1-2.3-256.9-111.2-446.9-111.2-154 0-265 67-265 67v29c1.6-.9 112.1-67 265-67z" id="path8" stroke="#b4b4b5" stroke-miterlimit="10"/><circle class="st0" cx="87.8" cy="262.679" r="16" id="circle10" stroke="#b4b4b5" stroke-miterlimit="10"/><circle class="st0" cx="187.8" cy="202.679" r="34" id="circle12" stroke="#b4b4b5" stroke-miterlimit="10"/><circle class="st0" cx="928.3" cy="329.179" r="14.5" id="circle14" stroke="#b4b4b5" stroke-miterlimit="10"/><circle class="st0" cx="156.5" cy="278.679" r="8" id="circle16" stroke="#b4b4b5" stroke-miterlimit="10"/><text x=".8" y="772.679" font-size="5" font-weight="700" id="text18" font-family="&apos;Helvetica Neue&apos;,Helvetica,Arial-Unicode,Arial,Sans-serif" fill="#000">Created by Yang LIU</text><text x=".8" y="777.679" font-size="5" font-weight="700" id="text20" font-family="&apos;Helvetica Neue&apos;,Helvetica,Arial-Unicode,Arial,Sans-serif" fill="#000">from the Noun Project</text></symbol><symbol id="landslides" viewBox="0 0 89.939 90.098"><switch transform="translate(-.243 -.035)"><g><path d="M65.791 50.559c2.512-1.396 3.164-.334 3.896.906.743 1.249.967 2.759-.638 3.646-1.459.804-3.009.296-4.121-.686-1.41-1.246-1.178-2.735.863-3.866zM79.544 61.466c2.647 1.95 2.149 3.065.933 4.549-1.663 2.04-3.139.66-4.137-.074-1.002-.731-2.684-2.18-1.729-3.842.953-1.666 3.046-2.027 4.933-.633zM81.549 53.685c.411-2.536-.882-3.256-2.856-3.549-1.989-.304-4.152.35-4.662 1.498-.556 1.253 1.631 2.699 3.475 3.394 2.352.872 3.707.717 4.043-1.343zM59.022 50.49c1.334.085 1.445 1.904.879 3.087-.57 1.183-2.149.896-2.813.484-.664-.412-1.634-1.453-1.068-2.635.57-1.193 1.533-1.033 3.002-.936zM48.307 54.091c-.053-.994.733-1.399 1.908-1.537 1.171-.138 1.71.857 1.716 1.385.006.528-.319 1.467-1.49 1.603-1.184.138-2.084-.456-2.134-1.451zM74.078 27.587l-18.997-15.41-2.449 3.022L71.73 30.691l-2.249 2.971 9.618.504-2.67-9.685z"/><path d="M59.751 59.483c-1.369.301-8.762 2.283-23.208-1.363-6.467-2.045-13.354-6.957-15.709-15.289-4.787-16.934-5.823-26.494-6.25-28.698L.296.035.243 90.133h89.939z"/><path d="M42.826 50.926c10.14-5.851 17.563-3.359 16.822-3.941-14.745-11.609-41.453-33.249-41.453-33.249s3.535 10.219 9.938 25.347c3.021 7.142 9.894 12.074 14.693 11.843z"/></g></switch></symbol><symbol id="manmade" viewBox="0 0 89.933 89.933"><switch transform="translate(-5.167 -5.122)"><g><path d="M50.133 5.122c-24.834 0-44.966 20.133-44.966 44.967s20.132 44.966 44.966 44.966 44.966-20.132 44.966-44.966S74.967 5.122 50.133 5.122zm.181 35.092c5.464 0 9.892 4.428 9.892 9.892 0 5.463-4.428 9.892-9.892 9.892-5.463 0-9.892-4.429-9.892-9.892 0-5.464 4.429-9.892 9.892-9.892zm-35.013 9.875c0-1.206.065-2.397.18-3.576.123-1.171.303-2.333.535-3.47a34.273 34.273 0 0 1 2.041-6.558 33.1 33.1 0 0 1 1.47-3.059 36.01 36.01 0 0 1 1.756-2.884 33.99 33.99 0 0 1 2.016-2.688 32.831 32.831 0 0 1 2.263-2.483c.79-.79 1.615-1.543 2.48-2.258A37.082 37.082 0 0 1 30.74 21.1c.68-.453 1.373-.888 2.087-1.299l11.034 19.265c-3.829 2.187-6.417 6.307-6.419 11.023zm50.176 31.357a36.66 36.66 0 0 1-3.093 1.321c-1.047.39-2.116.732-3.197 1.021-1.081.291-2.18.53-3.284.714a35.57 35.57 0 0 1-6.72.471 35.654 35.654 0 0 1-3.39-.254 34.773 34.773 0 0 1-6.714-1.516 35.585 35.585 0 0 1-6.464-2.907l11.13-19.246a12.61 12.61 0 0 0 6.388 1.732c2.297 0 4.452-.616 6.313-1.688L67.65 80.29a33.93 33.93 0 0 1-2.173 1.156zm-2.654-31.357c0-4.602-2.464-8.639-6.141-10.863L67.807 19.8c.708.41 1.408.846 2.087 1.299.93.633 1.832 1.3 2.692 2.013a36.02 36.02 0 0 1 2.488 2.258 35.392 35.392 0 0 1 4.276 5.171c.63.934 1.215 1.892 1.758 2.884.534.991 1.027 2.008 1.469 3.06a34.6 34.6 0 0 1 1.18 3.208 34.707 34.707 0 0 1 1.39 6.819c.122 1.18.18 2.37.18 3.576H62.823z"/></g></switch></symbol><symbol id="menu" viewBox="0 0 80 66"><path d="M6 0a6 6 0 1 0 0 12h68a6 6 0 0 0 0-12zm0 27a6 6 0 1 0 0 12h68a6 6 0 0 0 0-12zm0 27a6 6 0 1 0 0 12h68a6 6 0 0 0 0-12z" style="text-indent:0;text-transform:none" overflow="visible" color="#000"/></symbol><symbol id="seaAndLakeIce" viewBox="0 0 72.022 88.962"><path d="M72.022 27.15H53.255L45.814 8.733l-4.57 1.479L35.196 0 24.983 15.723l-4.568-5.241-5.371 16.668H0v1.5h14.561l-1.939 6.019 3.762 24.863 6.047 1.881 11.153 27.549 9.004-15.723 4.838-.809 11.961-30.102-5.526-13.678h18.161zM35.244 56.371l-9.73-3.43-.356-.126-.035-.328-1.426-13.172 2.466 12.633 9.667 2.51zm4.381 8.665l7.694-22.072 1.859.739z"/></symbol><symbol id="search" viewBox="0 0 82.007 82.007"><path style="text-indent:0;text-transform:none" d="M29 0C13.055 0 0 13.055 0 29s13.055 29 29 29c5.812 0 11.23-1.742 15.781-4.719L71.75 80.25a6.018 6.018 0 0 0 8.5 0 6.018 6.018 0 0 0 0-8.5L53.281 44.781C56.253 40.231 58 34.807 58 29 58 13.055 44.945 0 29 0zm0 12c9.46 0 17 7.54 17 17s-7.54 17-17 17-17-7.54-17-17 7.54-17 17-17z" overflow="visible" color="#000"/></symbol><symbol id="severeStorms" viewBox="0 0 89.234 60.266" overflow="visible"><switch transform="translate(-.503 -15.132)"><g><path d="M44.108 48.148a10.08 10.08 0 0 0 1.376-.383c1.909-.976 3.289-2.207 4.031-3.612.505-1.208.377-3.077-3.384-2.375-.402.075-.872.213-1.357.379-1.919.982-3.304 2.224-4.048 3.634-.507 1.201-.376 3.055 3.382 2.357z" fill="none"/><path d="M87.793 32.885c-5.464-10.128-22.3-8.561-36.53-4.042-19.171 6.14-24.207 15.573-23.183 18.984.158 1.545 1.272 2.722 3.093 3.417-.553.022-1.05.022-1.469-.008-4.028-.292-8.648-2.395-7.23-7.563 1.139-3.241 3.247-6.212 7.124-9.572 3.846-3.341 8.73-5.937 13.729-8.238 17.163-7.388 40.085-5.687 43.908-4.77-5.815-4.667-22.181-10.143-44.272-1.083-18.114 7.904-24.975 19.86-25.467 24.029-.663 4.07 1.896 8.611 7.742 9.311 5.321.639 15.526-.924 21.26-3.9 1.566-.749 3.092-1.691 4.256-2.82.899-.871 2.38-2.632 1.659-4.201-.479-1.044-1.624-1.644-3.074-1.756 4.634-.889 8.181-.57 8.897 2.75.647 9.281-38.399 21.32-46.138 9.725-9.228-13.798 16.021-30.54 16.021-30.54S-8.163 37.385 2.447 57.033c5.463 10.131 22.297 8.563 36.534 4.045 19.166-6.141 24.201-15.55 23.18-18.974-.11-1.078-.688-1.974-1.639-2.657 3.669.604 7.278 2.769 6.004 7.431-1.143 3.224-3.249 6.194-7.126 9.555-3.842 3.339-8.728 5.937-13.724 8.237-17.162 7.383-40.087 5.688-43.911 4.77 5.817 4.662 22.185 10.139 44.277 1.084 18.107-7.904 24.971-19.861 25.462-24.006.662-4.085-1.923-8.433-7.745-9.334-4.669-.722-10.889.118-16.095 1.805-1.721.486-3.778 1.3-5.611 2.402-.179.101-.366.2-.536.303-.044.027-.059.046-.06.062-.721.473-1.396.991-1.977 1.558-.893.875-2.374 2.634-1.654 4.192.48 1.039 1.628 1.636 3.083 1.746-4.641.888-8.189.573-8.91-2.73-.644-9.305 38.403-21.342 46.144-9.745 9.225 13.797-16.022 30.537-16.022 30.537s36.282-14.779 25.672-34.429zM40.727 45.791c.745-1.41 2.129-2.651 4.048-3.634a9.822 9.822 0 0 1 1.357-.379c3.761-.701 3.889 1.167 3.384 2.375-.742 1.405-2.122 2.637-4.031 3.612a10.12 10.12 0 0 1-1.376.383c-3.759.698-3.89-1.156-3.382-2.357z"/></g></switch></symbol><symbol id="snow" viewBox="0 0 96.977 98.647"><path d="M85.563 28.712a18.606 18.606 0 0 0-.531-1.637v-.066h-.023c-2.713-7.154-9.609-12.248-17.713-12.248-2.277 0-4.451.422-6.475 1.158C57.536 6.646 48.691 0 38.29 0 26.419 0 16.574 8.657 14.711 20.001h-.005v.025a24.036 24.036 0 0 0-.317 3.875h.317v.016c-.106-.002-.21-.016-.317-.016C6.442 23.901 0 30.343 0 38.29c0 7.947 6.442 14.389 14.389 14.389h70.643v-.001c6.602-.029 11.945-5.388 11.945-11.996 0-6.431-5.06-11.665-11.414-11.97zM11.03 65.588l.8 1.182h1.49l.688-1.182-.725-1.26h-1.492zm.613 9.504V72.42l-1.493.84-.761-.435v-.942l2.215-1.258v-1.757L9.998 69.9v-1.86l-1.535.885v2.522l-.841.521-.709-.47v-1.69l-2.331 1.314-.995-.419v-1.066L6.033 68.3l-1.53-.77v-.976l.868-.476 2.195 1.293 1.523-.88-.037-.027-1.559-.894 1.514-.938-1.518-.88-2.194 1.29-.822-.409v-.974l1.484-.834-2.37-1.287v-1.065l.91-.47 2.336 1.349v-1.72l.704-.475.863.498-.006 2.573 1.569.896-.006-1.817 1.646.885v-1.756l-2.214-1.262v-.933l.761-.44 1.493.84v-2.667l.854-.561.861.561v2.667l1.547-.857.778.515v.84l-2.29 1.298v1.756l1.566-.955v1.911l1.614-.879v-2.752l.777-.362.817.362v1.76l2.403-1.299.84.513v.995l-2.347 1.334 1.468.823v.95l-.761.421-2.254-1.331-1.558.988 1.507.939-1.553.894 1.604.84 2.254-1.259.724.512v.908l-1.414.795 2.251 1.337v1.05l-.953.436-2.211-1.259v1.666l-.795.443-.777-.443v-2.528l-1.637-.934v1.757l-1.567-.956v1.757l2.215 1.258v.993l-.765.382-1.484-.84v2.672l-.861.555zM28.856 88.588l.8 1.182h1.49l.688-1.182-.725-1.26h-1.492zm.613 9.504V95.42l-1.493.84-.761-.435v-.942l2.215-1.258v-1.757L27.824 92.9v-1.86l-1.535.885v2.522l-.841.521-.709-.47v-1.69l-2.331 1.314-.995-.419v-1.066l2.446-1.337-1.53-.77v-.976l.868-.476 2.195 1.293 1.523-.88-.037-.027-1.559-.894 1.514-.938-1.519-.881-2.194 1.29-.822-.409v-.974l1.484-.834-2.37-1.287v-1.065l.91-.47 2.336 1.349v-1.72l.704-.475.863.498-.006 2.573 1.569.896-.006-1.817 1.646.885v-1.756l-2.215-1.262v-.933l.761-.44 1.493.84v-2.667l.854-.561.861.561v2.667l1.547-.857.778.515v.84l-2.29 1.298v1.756l1.566-.955v1.911l1.614-.879v-2.752l.777-.362.817.362v1.76l2.408-1.299.84.513v.995l-2.347 1.334 1.468.823v.95l-.761.421-2.254-1.331-1.558.988 1.507.939-1.553.894 1.604.84 2.254-1.259.724.512v.908l-1.414.795 2.251 1.337v1.05l-.953.436-2.211-1.259v1.666l-.795.443-.777-.443v-2.528l-1.637-.934v1.757l-1.568-.957v1.757l2.215 1.258v.995l-.765.382-1.484-.84v2.672l-.861.555zM47.356 65.588l.799 1.182h1.49l.688-1.182-.725-1.26h-1.493zm.613 9.504V72.42l-1.493.84-.761-.435v-.942l2.215-1.258v-1.757L46.323 69.9v-1.86l-1.535.885v2.522l-.84.521-.71-.47v-1.69l-2.33 1.314-.995-.419v-1.066l2.445-1.337-1.529-.77v-.976l.867-.476 2.195 1.293 1.523-.88-.036-.027-1.559-.894 1.513-.938-1.518-.881-2.195 1.29-.822-.409v-.974l1.484-.834-2.369-1.287v-1.065l.91-.47 2.336 1.349v-1.72l.704-.475.862.498-.006 2.573 1.57.896-.006-1.817 1.646.885v-1.756l-2.215-1.262v-.933l.761-.44 1.493.84v-2.667l.854-.561.862.561v2.667l1.547-.857.778.515v.84l-2.291 1.298v1.756l1.567-.955v1.911l1.614-.879v-2.752l.777-.362.817.362v1.76l2.407-1.299.84.513v.995l-2.347 1.334 1.468.823v.95l-.761.421-2.255-1.331-1.557.988 1.507.939-1.553.894 1.603.84 2.255-1.259.724.512v.908l-1.414.795 2.251 1.337v1.05l-.953.436-2.211-1.259v1.666l-.795.443-.777-.443v-2.528l-1.638-.934v1.757l-1.567-.957v1.757l2.215 1.258v.995l-.765.382-1.484-.84v2.672l-.862.555zM83.009 65.588l.799 1.182h1.49l.688-1.182-.725-1.26h-1.493zm.613 9.504V72.42l-1.493.84-.761-.435v-.942l2.215-1.258v-1.757L81.976 69.9v-1.86l-1.535.885v2.522l-.84.521-.709-.47v-1.69l-2.331 1.314-.995-.419v-1.066l2.445-1.337-1.529-.77v-.976l.867-.476 2.195 1.293 1.523-.88-.036-.027-1.559-.894 1.513-.938-1.518-.881-2.195 1.29-.822-.409v-.974l1.484-.834-2.369-1.287v-1.065l.91-.47 2.336 1.349v-1.72l.704-.475.862.498-.006 2.573 1.57.896-.006-1.817 1.646.885v-1.756l-2.215-1.262v-.933l.761-.44 1.493.84v-2.667l.854-.561.862.561v2.667l1.547-.857.778.515v.84l-2.291 1.298v1.756l1.567-.955v1.911l1.614-.879v-2.752l.777-.362.817.362v1.76l2.403-1.299.84.513v.995l-2.347 1.334 1.468.823v.95l-.761.421-2.255-1.331-1.557.988 1.507.939-1.553.894 1.603.84 2.255-1.259.724.512v.908l-1.414.795 2.251 1.337v1.05l-.953.436-2.211-1.259v1.666l-.795.443-.777-.443v-2.528l-1.638-.934v1.757l-1.566-.956v1.757l2.215 1.258v.994l-.765.382-1.484-.84v2.672l-.862.555zM65.182 88.588l.799 1.182h1.49l.688-1.182-.725-1.26h-1.493zm.614 9.504V95.42l-1.493.84-.761-.435v-.942l2.215-1.258v-1.757L64.15 92.9v-1.86l-1.535.885v2.522l-.84.521-.709-.47v-1.69l-2.331 1.314-.995-.419v-1.066l2.445-1.337-1.529-.77v-.976l.867-.476 2.195 1.293 1.523-.88-.036-.027-1.559-.894 1.513-.938-1.518-.881-2.195 1.29-.822-.409v-.974l1.484-.834-2.369-1.286v-1.065l.91-.47 2.336 1.349v-1.72l.704-.475.862.498-.006 2.573 1.57.896-.006-1.817 1.646.885v-1.756l-2.215-1.262v-.933l.761-.44 1.493.84v-2.667l.854-.561.862.561v2.667l1.547-.857.778.515v.84l-2.291 1.298v1.756l1.567-.955v1.911l1.614-.879v-2.752l.777-.362.817.362v1.76l2.403-1.299.84.513v.995l-2.347 1.334 1.468.823v.95l-.761.421-2.255-1.331-1.557.988 1.507.939-1.553.894 1.603.84 2.255-1.259.724.512v.908l-1.414.795 2.251 1.337v1.05l-.953.436-2.211-1.259v1.666l-.795.443-.777-.443v-2.528l-1.638-.934v1.757l-1.566-.956v1.757l2.215 1.258v.993l-.765.382-1.484-.84v2.672l-.862.555z"/></symbol><symbol id="temperatureExtremes" viewBox="0 0 18.71 89.515"><path d="M12.028 73.556V30.871l-2.256-3.566-.767.358-1.462-3.265-.862.87v48.287c-2.609 1.06-4.455 3.618-4.455 6.603 0 3.93 3.198 7.128 7.128 7.128s7.128-3.198 7.128-7.128c.001-2.983-1.845-5.542-4.454-6.602z"/><path d="M14.259 72.191l-.003-51.52-2.382 5.5-2.101-3.322-.767.359-1.466-3.274-1.46 1.516-1.625-1.974-.003 52.715A9.39 9.39 0 0 0 0 80.16c0 5.159 4.197 9.355 9.355 9.355 5.159 0 9.355-4.197 9.355-9.355a9.393 9.393 0 0 0-4.451-7.969zM9.355 88.624c-4.667 0-8.465-3.797-8.465-8.465a8.499 8.499 0 0 1 4.23-7.331l.222-.129.003-50.74.682.828 1.238-1.285 1.297 2.897.876-.41 2.582 4.082 1.343-3.102.003 47.73.222.129a8.499 8.499 0 0 1 4.23 7.331c.002 4.668-3.796 8.465-8.463 8.465zM11.583 3.119C11.583.998 10.79 0 9.356 0c-1.574 0-2.23.843-2.228 3.119.002 2.547 2.227 7.574 2.227 7.574s2.228-4.874 2.228-7.574zM6.001 16.731s.123-5.357-.943-7.838C4.22 6.944 3.099 6.341 1.781 6.907.334 7.529.065 8.562.965 10.652c1.007 2.339 5.036 6.079 5.036 6.079z"/></symbol><symbol id="volcanoes" viewBox="0 0 299 203.054"><g id="g38" transform="translate(0 .054)"><path class="fil0" d="M0 203c43-24 107-72 119-103 4 3 12 12 15 15-1 4-3 8-5 13-3 3-6 5-9 8-2 4-4 7-5 10 2-3 4-6 7-9 5-4 10-8 15-13 0 2 1 3 1 5 5 2 10 4 16 6v8l-12 15c4-3 8-7 13-10 0 6 1 13 1 19 1-11 2-22 3-34-4-2-7-4-11-6 4-3 8-5 12-7 3 1 5 1 7 2 1 4 3 8 4 13 1 2 3 3 5 5 0 5 0 10 1 15 0-6 1-11 2-17-3-3-5-6-7-9 0-6 1-11 1-17 4-4 8-8 11-12 5 11 14 9 21 13 11 29 56 65 94 90H0z" id="path6" fill="#000"/><path class="fil0" d="M212 60c-4 17-24 23-37 12-3 2-18 5-21-9 1 15 18 12 20 11-7 16-30 15-36-2-14 13-33 11-42 1-10-11-10-30 5-42-6-23 23-38 39-21 0 0-5 3-8 13-5-3-15-5-22 6 9-10 17-8 22-5 0 1-1 6-1 7 4-24 20-24 26-22 10-13 30-12 38 3 18-12 37-1 42 13 5 15-4 33-25 35z" id="path8" fill="#000"/><path class="fil0" d="M145 96c-4-11-11-16-8-18s6 9 8 18z" id="path10" fill="#000"/><path class="fil0" d="M169 101c3-11 6-19 12-18 2 0-8 9-12 18z" id="path12" fill="#000"/><path class="fil0" d="M154 108c-1-8-5-19-1-20 5-2 2 11 1 20z" id="path14" fill="#000"/><path class="fil0" d="M129 101c-22-24-44-14-42-20 1-6 26-1 42 20z" id="path16" fill="#000"/><path class="fil0" d="M189 101c22-24 43-14 42-20-2-6-26-1-42 20z" id="path18" fill="#000"/><path class="fil0" d="M166 114c11-25 32-23 29-27-3-5-22 6-29 27z" id="path20" fill="#000"/><path class="fil0" d="M154 117c-11-24-32-22-29-26 3-6 22 5 29 26z" id="path22" fill="#000"/><circle class="fil0" cx="82" cy="69" r="3" id="circle24" fill="#000"/><circle class="fil0" cx="162" cy="103" r="3" id="circle26" fill="#000"/><circle class="fil0" cx="219" cy="68" r="5" id="circle28" fill="#000"/><circle class="fil0" cx="249" cy="62" r="5" id="circle30" fill="#000"/><circle class="fil0" cx="220" cy="97" r="5" id="circle32" fill="#000"/><circle class="fil0" cx="143" cy="118" r="4" id="circle34" fill="#000"/><circle class="fil0" cx="94" cy="102" r="5" id="circle36" fill="#000"/></g></symbol><symbol id="waterColor" viewBox="0 0 90 88.567"><path d="M26.943 38.01C31.913 25.12 40.018 15.075 45.04 9.66c5.01 5.33 13.065 15.228 18.014 28.108a68.79 68.79 0 0 1 1.966 5.892l-40.059.271a68.976 68.976 0 0 1 1.982-5.92M73.797 52.46l11.8-.08a4.429 4.429 0 0 0-.024-8.858h-.029l-13.396.09a73.5 73.5 0 0 0-1.767-5.894C62.416 14.652 45 0 45 0S27.528 15.039 19.58 38.06a73.483 73.483 0 0 0-1.773 5.918l-13.404.09a4.429 4.429 0 0 0 .025 8.86h.029l11.71-.08a64.426 64.426 0 0 0-.41 5.908c-.013.505-.04 1.004-.04 1.513 0 15.628 13.655 28.298 29.283 28.298 15.628 0 29.282-12.67 29.282-28.298 0-.642-.03-1.273-.048-1.908a65.866 65.866 0 0 0-.437-5.902" fill="#000" fill-rule="evenodd"/></symbol><symbol id="wildfires" viewBox="0 0 610 775"><path d="M242 0l59 79 58 80h-75l38 47c26 32 53 65 79 97h-26l-43-42 11 42h-25l25 29 9 10c10 82-35 178-74 245-10 14-14 31-14 49 0 29 11 58 29 83 7 21 15 40 15 56H177c0-31 30-75 30-123v-59H0l121-135 9-10H42c33-39 67-78 100-116l25-29H84c26-32 53-65 79-97l38-47h-75l58-80zm177 370c12-30 19-73 15-127 130 99 176 280 176 366 0 114-84 169-195 165-67-2-134-72-134-138 0-15 3-28 11-41 64-109 92-204 72-279zm-12 369c-48-4-97-62-95-110 3-48 56-28 94-145 10 11 19 21 26 31 14-19 27-46 40-85 72 85 92 128 89 186-4 78-46 132-154 123z"/></symbol></svg>