<?xml version="1.0" encoding="utf-8"?><!DOCTYPE svg PUBLIC "-//W3C//DTD SVG 1.1//EN" "http://www.w3.org/Graphics/SVG/1.1/DTD/svg11.dtd"><svg version="1.1" xmlns="http://www.w3.org/2000/svg" xmlns:xlink="http://www.w3.org/1999/xlink" x="0px" y="0px" viewBox="-17.997 -18 99.996 125" enable-background="new -17.997 -18 99.996 100" xml:space="preserve"><path fill="#231F20" d="M30.118,26.62c-0.274,0.242-0.554,0.48-0.813,0.738c-0.03,0.029-0.053,0.057-0.083,0.086
	c-3.638,3.66-5.893,8.702-5.903,14.279h-3.704c0-3.906,0.959-7.582,2.623-10.838c-1.826-0.65-3.78-1.026-5.83-1.026
	c-6.865,0-12.808,3.91-15.756,9.608c0.421-0.021,0.836-0.06,1.26-0.06c8.105,0,15.592,4.284,19.759,11.122
	c0.206-0.007,0.408-0.011,0.611-0.011c3.659,0,7.226,1.165,10.181,3.268c0.314-0.228,0.637-0.438,0.962-0.638
	c2.405-7.077,9.021-11.89,16.631-11.89c6.558,0,12.54,3.726,15.546,9.377c0.68-0.079,1.363-0.117,2.047-0.117
	c5.273,0,10.001,2.342,13.227,6.033c0.724-1.713,1.125-3.601,1.125-5.576c0-7.928-6.431-14.355-14.359-14.355
	c-0.817,0-1.616,0.084-2.397,0.21c-2.647-8.484-10.305-14.752-19.51-15.354v0.016c-0.484-0.034-0.969-0.076-1.461-0.076
	c-0.231,0-0.46,0.025-0.691,0.037v0.004c-0.488,0.001-0.965,0.042-1.446,0.076c-0.114,0.009-0.231,0.02-0.348,0.035
	c-0.604,0.072-1.2,0.156-1.79,0.272c-0.047,0.005-0.098,0.016-0.145,0.023c-0.607,0.124-1.201,0.284-1.79,0.456
	c-0.194,0.063-0.384,0.117-0.573,0.178c-0.471,0.156-0.934,0.326-1.39,0.505c-0.181,0.074-0.363,0.146-0.546,0.23
	c-0.463,0.198-0.911,0.415-1.351,0.646c-0.235,0.12-0.463,0.246-0.691,0.372c-0.311,0.182-0.619,0.367-0.923,0.562
	c-0.354,0.22-0.698,0.451-1.034,0.691c-0.272,0.196-0.546,0.394-0.811,0.603C30.531,26.272,30.326,26.446,30.118,26.62z"/><circle fill="#231F20" cx="48.322" cy="14.537" r="3.316"/><path fill="#231F20" d="M45.27-7.037c1.834,0,3.32-1.485,3.32-3.32c0-1.829-1.486-3.32-3.32-3.32c-1.83,0-3.316,1.491-3.316,3.32
	C41.953-8.524,43.439-7.037,45.27-7.037z"/><path fill="#231F20" d="M52.984-2.1c1.834,0,3.32-1.486,3.32-3.32c0-1.828-1.486-3.32-3.32-3.32c-1.83,0-3.316,1.491-3.316,3.32
	C49.668-3.586,51.154-2.1,52.984-2.1z"/><path fill="#231F20" d="M73.974,26.754c-1.83,0-3.317,1.491-3.317,3.32c0,1.833,1.487,3.32,3.317,3.32c1.833,0,3.32-1.489,3.32-3.32
	C77.294,28.245,75.807,26.754,73.974,26.754z"/><path fill="#231F20" d="M78.683-6.802c1.83,0,3.316-1.486,3.316-3.324c0-1.824-1.486-3.313-3.316-3.313
	c-1.834,0-3.32,1.487-3.32,3.313C75.362-8.289,76.849-6.802,78.683-6.802z"/><path fill="#231F20" d="M37.826,1.957c1.834,0,3.32-1.485,3.32-3.316c0-1.831-1.486-3.32-3.32-3.32c-1.83,0-3.316,1.487-3.316,3.32
	C34.51,0.472,35.996,1.957,37.826,1.957z"/><path fill="#231F20" d="M65.021,4.381c1.834,0,3.32-1.486,3.32-3.32c0-1.828-1.486-3.32-3.32-3.32c-1.83,0-3.316,1.491-3.316,3.32
	C61.705,2.895,63.191,4.381,65.021,4.381z"/><path fill="#231F20" d="M71.507,19.532c1.833,0,3.32-1.486,3.32-3.32c0-1.832-1.487-3.317-3.32-3.317
	c-1.83,0-3.317,1.485-3.317,3.317C68.189,18.048,69.677,19.532,71.507,19.532z"/><path fill="#231F20" d="M-7.475,28.024c1.829,0,3.316-1.487,3.316-3.32c0-1.833-1.487-3.316-3.316-3.316
	c-1.836,0-3.32,1.485-3.32,3.316C-10.795,26.537-9.311,28.024-7.475,28.024z"/><path fill="#231F20" d="M-1.331-11.367c1.83,0.002,3.317-1.487,3.317-3.315C1.986-16.517,0.5-18-1.331-18
	c-1.833,0-3.32,1.483-3.32,3.317C-4.651-12.854-3.164-11.367-1.331-11.367z"/><path fill="#231F20" d="M0.564,4.196c0,1.834,1.484,3.317,3.316,3.317c1.836,0,3.317-1.485,3.317-3.317
	c0-1.833-1.481-3.32-3.317-3.32C2.048,0.875,0.564,2.363,0.564,4.196z"/><circle fill="#231F20" cx="-14.681" cy="0.49" r="3.319"/><path fill="#231F20" d="M4.651,14.917c-1.829,0-3.317,1.487-3.317,3.324c0,1.829,1.488,3.313,3.317,3.313
	c1.835,0,3.32-1.485,3.32-3.313C7.971,16.406,6.486,14.917,4.651,14.917z"/><path fill="#231F20" d="M24.238-2.749c1.829,0,3.316-1.483,3.316-3.32c0-1.829-1.487-3.32-3.316-3.32c-1.835,0-3.32,1.491-3.32,3.32
	C20.918-4.233,22.403-2.749,24.238-2.749z"/><path fill="#231F20" d="M15.144,6.587c1.835,0,3.32-1.485,3.32-3.317c0-1.831-1.485-3.32-3.32-3.32c-1.829,0-3.317,1.487-3.317,3.32
	C11.827,5.102,13.314,6.587,15.144,6.587z"/><path fill="#231F20" d="M24.79,12.066c0,1.832,1.488,3.317,3.317,3.317c1.835,0,3.32-1.485,3.32-3.317c0-1.831-1.485-3.32-3.32-3.32
	C26.277,8.746,24.79,10.233,24.79,12.066z"/><path fill="#231F20" d="M67.647,54.223c-1.497,0-2.934,0.244-4.282,0.68c-1.704-5.742-7.014-9.939-13.311-9.939
	c-6.564,0-12.052,4.562-13.502,10.683c-1.548,0.76-2.93,1.794-4.087,3.045c-2.539-2.741-6.155-4.468-10.185-4.468
	c-0.922,0-1.822,0.096-2.695,0.266c-3.066-6.71-9.82-11.377-17.676-11.377c-10.739,0-19.444,8.706-19.444,19.444
	C-17.534,73.296-8.829,82,1.91,82h65.737c7.671,0,13.889-6.22,13.889-13.889C81.536,60.438,75.318,54.223,67.647,54.223z"/><text x="-17.997" y="97" fill="#000000" font-size="5px" font-weight="bold" font-family="'Helvetica Neue', Helvetica, Arial-Unicode, Arial, Sans-serif">Created by Jory Raphael</text><text x="-17.997" y="102" fill="#000000" font-size="5px" font-weight="bold" font-family="'Helvetica Neue', Helvetica, Arial-Unicode, Arial, Sans-serif">from the Noun Project</text></svg>