<?xml version="1.0" encoding="UTF-8" standalone="no"?>
<svg
   xmlns:dc="http://purl.org/dc/elements/1.1/"
   xmlns:cc="http://creativecommons.org/ns#"
   xmlns:rdf="http://www.w3.org/1999/02/22-rdf-syntax-ns#"
   xmlns:svg="http://www.w3.org/2000/svg"
   xmlns="http://www.w3.org/2000/svg"
   xmlns:sodipodi="http://sodipodi.sourceforge.net/DTD/sodipodi-0.dtd"
   xmlns:inkscape="http://www.inkscape.org/namespaces/inkscape"
   version="1.1"
   x="0px"
   y="0px"
   viewBox="-17.997 -18 100.001 100"
   enable-background="new -17.997 -18 99.996 100"
   xml:space="preserve"
   id="svg42"
   sodipodi:docname="dustAndHaze.svg"
   width="100.001"
   height="100"
   inkscape:version="0.92.3 (2405546, 2018-03-11)"><metadata
     id="metadata48"><rdf:RDF><cc:Work
         rdf:about=""><dc:format>image/svg+xml</dc:format><dc:type
           rdf:resource="http://purl.org/dc/dcmitype/StillImage" /><dc:title></dc:title></cc:Work></rdf:RDF></metadata><defs
     id="defs46" /><sodipodi:namedview
     pagecolor="#ffffff"
     bordercolor="#666666"
     borderopacity="1"
     objecttolerance="10"
     gridtolerance="10"
     guidetolerance="10"
     inkscape:pageopacity="0"
     inkscape:pageshadow="2"
     inkscape:window-width="3000"
     inkscape:window-height="1955"
     id="namedview44"
     showgrid="false"
     fit-margin-top="0"
     fit-margin-left="0"
     fit-margin-right="0"
     fit-margin-bottom="0"
     inkscape:zoom="1.888"
     inkscape:cx="-68.907897"
     inkscape:cy="37.5"
     inkscape:window-x="-13"
     inkscape:window-y="-13"
     inkscape:window-maximized="1"
     inkscape:current-layer="svg42" /><path
     d="m 30.121,26.62 c -0.274,0.242 -0.554,0.48 -0.813,0.738 -0.03,0.029 -0.053,0.057 -0.083,0.086 -3.638,3.66 -5.893,8.702 -5.903,14.279 h -3.704 c 0,-3.906 0.959,-7.582 2.623,-10.838 -1.826,-0.65 -3.78,-1.026 -5.83,-1.026 -6.8650002,0 -12.8080002,3.91 -15.75600024,9.608 C 1.0759998,39.446 1.4909998,39.407 1.9149998,39.407 10.02,39.407 17.507,43.691 21.674,50.529 c 0.206,-0.007 0.408,-0.011 0.611,-0.011 3.659,0 7.226,1.165 10.181,3.268 0.314,-0.228 0.637,-0.438 0.962,-0.638 2.405,-7.077 9.021,-11.89 16.631,-11.89 6.558,0 12.54,3.726 15.546,9.377 0.68,-0.079 1.363,-0.117 2.047,-0.117 5.273,0 10.001,2.342 13.227,6.033 0.724,-1.713 1.125,-3.601 1.125,-5.576 0,-7.928 -6.431,-14.355 -14.359,-14.355 -0.817,0 -1.616,0.084 -2.397,0.21 C 62.601,28.346 54.943,22.078 45.738,21.476 v 0.016 c -0.484,-0.034 -0.969,-0.076 -1.461,-0.076 -0.231,0 -0.46,0.025 -0.691,0.037 v 0.004 c -0.488,10e-4 -0.965,0.042 -1.446,0.076 -0.114,0.009 -0.231,0.02 -0.348,0.035 -0.604,0.072 -1.2,0.156 -1.79,0.272 -0.047,0.005 -0.098,0.016 -0.145,0.023 -0.607,0.124 -1.201,0.284 -1.79,0.456 -0.194,0.063 -0.384,0.117 -0.573,0.178 -0.471,0.156 -0.934,0.326 -1.39,0.505 -0.181,0.074 -0.363,0.146 -0.546,0.23 -0.463,0.198 -0.911,0.415 -1.351,0.646 -0.235,0.12 -0.463,0.246 -0.691,0.372 -0.311,0.182 -0.619,0.367 -0.923,0.562 -0.354,0.22 -0.698,0.451 -1.034,0.691 -0.272,0.196 -0.546,0.394 -0.811,0.603 -0.214,0.166 -0.419,0.34 -0.627,0.514 z"
     id="path2"
     inkscape:connector-curvature="0"
     style="fill:#231f20" /><circle
     cx="48.324997"
     cy="14.537"
     r="3.316"
     id="circle4"
     style="fill:#231f20" /><path
     d="m 45.273,-7.037 c 1.834,0 3.32,-1.485 3.32,-3.32 0,-1.829 -1.486,-3.32 -3.32,-3.32 -1.83,0 -3.316,1.491 -3.316,3.32 -10e-4,1.833 1.485,3.32 3.316,3.32 z"
     id="path6"
     inkscape:connector-curvature="0"
     style="fill:#231f20" /><path
     d="m 52.987,-2.1 c 1.834,0 3.32,-1.486 3.32,-3.32 0,-1.828 -1.486,-3.32 -3.32,-3.32 -1.83,0 -3.316,1.491 -3.316,3.32 0,1.834 1.486,3.32 3.316,3.32 z"
     id="path8"
     inkscape:connector-curvature="0"
     style="fill:#231f20" /><path
     d="m 73.977,26.754 c -1.83,0 -3.317,1.491 -3.317,3.32 0,1.833 1.487,3.32 3.317,3.32 1.833,0 3.32,-1.489 3.32,-3.32 0,-1.829 -1.487,-3.32 -3.32,-3.32 z"
     id="path10"
     inkscape:connector-curvature="0"
     style="fill:#231f20" /><path
     d="m 78.686,-6.802 c 1.83,0 3.316,-1.486 3.316,-3.324 0,-1.824 -1.486,-3.313 -3.316,-3.313 -1.834,0 -3.32,1.487 -3.32,3.313 -0.001,1.837 1.486,3.324 3.32,3.324 z"
     id="path12"
     inkscape:connector-curvature="0"
     style="fill:#231f20" /><path
     d="m 37.829,1.957 c 1.834,0 3.32,-1.485 3.32,-3.316 0,-1.831 -1.486,-3.32 -3.32,-3.32 -1.83,0 -3.316,1.487 -3.316,3.32 0,1.831 1.486,3.316 3.316,3.316 z"
     id="path14"
     inkscape:connector-curvature="0"
     style="fill:#231f20" /><path
     d="m 65.024,4.381 c 1.834,0 3.32,-1.486 3.32,-3.32 0,-1.828 -1.486,-3.32 -3.32,-3.32 -1.83,0 -3.316,1.491 -3.316,3.32 0,1.834 1.486,3.32 3.316,3.32 z"
     id="path16"
     inkscape:connector-curvature="0"
     style="fill:#231f20" /><path
     d="m 71.51,19.532 c 1.833,0 3.32,-1.486 3.32,-3.32 0,-1.832 -1.487,-3.317 -3.32,-3.317 -1.83,0 -3.317,1.485 -3.317,3.317 -0.001,1.836 1.487,3.32 3.317,3.32 z"
     id="path18"
     inkscape:connector-curvature="0"
     style="fill:#231f20" /><path
     d="m -7.4720002,28.024 c 1.829,0 3.316,-1.487 3.316,-3.32 0,-1.833 -1.487,-3.316 -3.316,-3.316 -1.836,0 -3.3199998,1.485 -3.3199998,3.316 0,1.833 1.4839998,3.32 3.3199998,3.32 z"
     id="path20"
     inkscape:connector-curvature="0"
     style="fill:#231f20" /><path
     d="m -1.3280002,-11.367 c 1.82999996,0.002 3.317,-1.487 3.317,-3.315 0,-1.835 -1.48600004,-3.318 -3.317,-3.318 -1.833,0 -3.32,1.483 -3.32,3.317 0,1.829 1.487,3.316 3.32,3.316 z"
     id="path22"
     inkscape:connector-curvature="0"
     style="fill:#231f20" /><path
     d="m 0.56699976,4.196 c 0,1.834 1.48400004,3.317 3.31600004,3.317 1.836,0 3.317,-1.485 3.317,-3.317 0,-1.833 -1.481,-3.32 -3.317,-3.32 -1.832,-0.001 -3.31600004,1.487 -3.31600004,3.32 z"
     id="path24"
     inkscape:connector-curvature="0"
     style="fill:#231f20" /><circle
     cx="-14.678"
     cy="0.49000001"
     r="3.319"
     id="circle26"
     style="fill:#231f20" /><path
     d="m 4.6539998,14.917 c -1.829,0 -3.317,1.487 -3.317,3.324 0,1.829 1.488,3.313 3.317,3.313 1.835,0 3.32,-1.485 3.32,-3.313 0,-1.835 -1.485,-3.324 -3.32,-3.324 z"
     id="path28"
     inkscape:connector-curvature="0"
     style="fill:#231f20" /><path
     d="m 24.241,-2.749 c 1.829,0 3.316,-1.483 3.316,-3.32 0,-1.829 -1.487,-3.32 -3.316,-3.32 -1.835,0 -3.32,1.491 -3.32,3.32 0,1.836 1.485,3.32 3.32,3.32 z"
     id="path30"
     inkscape:connector-curvature="0"
     style="fill:#231f20" /><path
     d="m 15.147,6.587 c 1.835,0 3.32,-1.485 3.32,-3.317 0,-1.831 -1.485,-3.32 -3.32,-3.32 -1.829,0 -3.317,1.487 -3.317,3.32 0,1.832 1.487,3.317 3.317,3.317 z"
     id="path32"
     inkscape:connector-curvature="0"
     style="fill:#231f20" /><path
     d="m 24.793,12.066 c 0,1.832 1.488,3.317 3.317,3.317 1.835,0 3.32,-1.485 3.32,-3.317 0,-1.831 -1.485,-3.32 -3.32,-3.32 -1.83,0 -3.317,1.487 -3.317,3.32 z"
     id="path34"
     inkscape:connector-curvature="0"
     style="fill:#231f20" /><path
     d="m 67.65,54.223 c -1.497,0 -2.934,0.244 -4.282,0.68 -1.704,-5.742 -7.014,-9.939 -13.311,-9.939 -6.564,0 -12.052,4.562 -13.502,10.683 -1.548,0.76 -2.93,1.794 -4.087,3.045 -2.539,-2.741 -6.155,-4.468 -10.185,-4.468 -0.922,0 -1.822,0.096 -2.695,0.266 C 16.522,47.78 9.7679998,43.113 1.9119998,43.113 -8.8270002,43.113 -17.532,51.819 -17.532,62.557 -17.531,73.296 -8.8260002,82 1.9129998,82 H 67.65 c 7.671,0 13.889,-6.22 13.889,-13.889 0,-7.673 -6.218,-13.888 -13.889,-13.888 z"
     id="path36"
     inkscape:connector-curvature="0"
     style="fill:#231f20" /></svg>