<svg xmlns="http://www.w3.org/2000/svg" xmlns:xlink="http://www.w3.org/1999/xlink" version="1.1" x="0px" y="0px" viewBox="0 0 1000 1250" style="enable-background:new 0 0 1000 1000;" xml:space="preserve"><style type="text/css">
	.st0{stroke:#B4B4B5;stroke-miterlimit:10;}
</style><path class="st0" d="M-0.2,664.8c0-7.5,4.1-14.3,10.7-17.7C41.8,630.7,138.9,586,264.7,586c190,0,261.8,108.9,446.9,111.2  c119.4,1.5,214.7-34.2,259.8-54.9c13.2-6.1,28.3,3.6,28.4,18.1l0.3,264.4c0.1,41.5-33.5,75.1-75,75.1h-850  c-41.4,0-74.9-33.5-75-74.9L-0.2,664.8z"/><path class="st0" d="M386.3,527c38.5,10.2,72.7,24.3,106.5,38.7l12.1-38.6L562,542l57.6,15.1l-15.1,50.3  c33.4,9.2,70,15.4,112.7,15.9l19.6-72.1l144.9,37.9L639.5,243.8l0.1-0.5l-0.7,0.4L258.2,426l145.2,38L386.3,527z"/><path class="st0" d="M264.7,563c190,0,261.8,108.9,446.9,111.2c167.9,2.1,288.1-69.2,288.1-69.2l0.5,395h0l-0.5-424  c0,0-120.2,71.3-288.1,69.2C526.5,642.9,454.7,534,264.7,534c-154,0-265,67-265,67l0,29C1.3,629.1,111.8,563,264.7,563z"/><circle class="st0" cx="87" cy="505" r="16"/><circle class="st0" cx="187" cy="445" r="34"/><circle class="st0" cx="927.5" cy="571.5" r="14.5"/><circle class="st0" cx="155.7" cy="521" r="8"/><text x="0" y="1015" fill="#000000" font-size="5px" font-weight="bold" font-family="'Helvetica Neue', Helvetica, Arial-Unicode, Arial, Sans-serif">Created by Yang LIU</text><text x="0" y="1020" fill="#000000" font-size="5px" font-weight="bold" font-family="'Helvetica Neue', Helvetica, Arial-Unicode, Arial, Sans-serif">from the Noun Project</text></svg>