<?xml version="1.0" encoding="UTF-8" standalone="no"?>
<svg
   xmlns:dc="http://purl.org/dc/elements/1.1/"
   xmlns:cc="http://creativecommons.org/ns#"
   xmlns:rdf="http://www.w3.org/1999/02/22-rdf-syntax-ns#"
   xmlns:svg="http://www.w3.org/2000/svg"
   xmlns="http://www.w3.org/2000/svg"
   xmlns:sodipodi="http://sodipodi.sourceforge.net/DTD/sodipodi-0.dtd"
   xmlns:inkscape="http://www.inkscape.org/namespaces/inkscape"
   version="1.1"
   x="0px"
   y="0px"
   viewBox="0 0 1001.5 778.73138"
   xml:space="preserve"
   id="svg22"
   sodipodi:docname="floods.svg"
   width="1001.5"
   height="778.73138"
   inkscape:version="0.92.3 (2405546, 2018-03-11)"><metadata
     id="metadata28"><rdf:RDF><cc:Work
         rdf:about=""><dc:format>image/svg+xml</dc:format><dc:type
           rdf:resource="http://purl.org/dc/dcmitype/StillImage" /><dc:title></dc:title></cc:Work></rdf:RDF></metadata><defs
     id="defs26" /><sodipodi:namedview
     pagecolor="#ffffff"
     bordercolor="#666666"
     borderopacity="1"
     objecttolerance="10"
     gridtolerance="10"
     guidetolerance="10"
     inkscape:pageopacity="0"
     inkscape:pageshadow="2"
     inkscape:window-width="3000"
     inkscape:window-height="1955"
     id="namedview24"
     showgrid="false"
     fit-margin-top="0"
     fit-margin-left="0"
     fit-margin-right="0"
     fit-margin-bottom="0"
     inkscape:zoom="0.1888"
     inkscape:cx="-770.38644"
     inkscape:cy="396.05225"
     inkscape:window-x="-13"
     inkscape:window-y="-13"
     inkscape:window-maximized="1"
     inkscape:current-layer="svg22" /><style
     type="text/css"
     id="style2">
	.st0{stroke:#B4B4B5;stroke-miterlimit:10;}
</style><path
     class="st0"
     d="m 0.6,422.47915 c 0,-7.5 4.1,-14.3 10.7,-17.7 31.3,-16.4 128.4,-61.1 254.2,-61.1 190,0 261.8,108.9 446.9,111.2 119.4,1.5 214.7,-34.2 259.8,-54.9 13.2,-6.1 28.3,3.6 28.4,18.1 l 0.3,264.4 c 0.1,41.5 -33.5,75.1 -75,75.1 h -850 c -41.4,0 -74.9,-33.5 -75,-74.9 z"
     id="path4"
     inkscape:connector-curvature="0"
     style="stroke:#b4b4b5;stroke-miterlimit:10" /><path
     class="st0"
     d="m 387.1,284.67915 c 38.5,10.2 72.7,24.3 106.5,38.7 l 12.1,-38.6 57.1,14.9 57.6,15.1 -15.1,50.3 c 33.4,9.2 70,15.4 112.7,15.9 l 19.6,-72.1 144.9,37.9 L 640.3,1.4791511 640.4,0.97915108 639.7,1.3791511 259,183.67915 l 145.2,38 z"
     id="path6"
     inkscape:connector-curvature="0"
     style="stroke:#b4b4b5;stroke-miterlimit:10" /><path
     class="st0"
     d="m 265.5,320.67915 c 190,0 261.8,108.9 446.9,111.2 167.9,2.1 288.1,-69.2 288.1,-69.2 l 0.5,395 v 0 l -0.5,-424 c 0,0 -120.2,71.3 -288.1,69.2 -185.1,-2.3 -256.9,-111.2 -446.9,-111.2 -154,0 -265,67 -265,67 v 29 c 1.6,-0.9 112.1,-67 265,-67 z"
     id="path8"
     inkscape:connector-curvature="0"
     style="stroke:#b4b4b5;stroke-miterlimit:10" /><circle
     class="st0"
     cx="87.800003"
     cy="262.67914"
     r="16"
     id="circle10"
     style="stroke:#b4b4b5;stroke-miterlimit:10" /><circle
     class="st0"
     cx="187.8"
     cy="202.67915"
     r="34"
     id="circle12"
     style="stroke:#b4b4b5;stroke-miterlimit:10" /><circle
     class="st0"
     cx="928.29999"
     cy="329.17914"
     r="14.5"
     id="circle14"
     style="stroke:#b4b4b5;stroke-miterlimit:10" /><circle
     class="st0"
     cx="156.5"
     cy="278.67914"
     r="8"
     id="circle16"
     style="stroke:#b4b4b5;stroke-miterlimit:10" /><text
     x="0.80000001"
     y="772.67914"
     font-size="5px"
     font-weight="bold"
     id="text18"
     style="font-weight:bold;font-size:5px;font-family:'Helvetica Neue', Helvetica, Arial-Unicode, Arial, Sans-serif;fill:#000000">Created by Yang LIU</text>
<text
     x="0.80000001"
     y="777.67914"
     font-size="5px"
     font-weight="bold"
     id="text20"
     style="font-weight:bold;font-size:5px;font-family:'Helvetica Neue', Helvetica, Arial-Unicode, Arial, Sans-serif;fill:#000000">from the Noun Project</text>
</svg>