<svg xmlns="http://www.w3.org/2000/svg" xmlns:xlink="http://www.w3.org/1999/xlink" version="1.1" x="0px" y="0px" viewBox="0 0 100 125" style="enable-background:new 0 0 100 100;" xml:space="preserve"><path d="M86.011,32.669H67.244l-7.441-18.417l-4.57,1.479L49.185,5.519L38.972,21.242l-4.568-5.241l-5.371,16.668H13.989v1.5H28.55  l-1.939,6.019l3.762,24.863l6.047,1.881l11.153,27.549l9.004-15.723l4.838-0.809l11.961-30.102L67.85,34.169h18.161V32.669z   M49.233,61.89l-9.73-3.43l-0.356-0.126l-0.035-0.328l-1.426-13.172l2.466,12.633l9.667,2.51L49.233,61.89z M53.614,70.555  l7.694-22.072l1.859,0.739L53.614,70.555z"/><text x="0" y="115" fill="#000000" font-size="5px" font-weight="bold" font-family="'Helvetica Neue', Helvetica, Arial-Unicode, Arial, Sans-serif">Created by Juan Pablo Bravo</text><text x="0" y="120" fill="#000000" font-size="5px" font-weight="bold" font-family="'Helvetica Neue', Helvetica, Arial-Unicode, Arial, Sans-serif">from the Noun Project</text></svg>