<?xml version="1.0" encoding="UTF-8" standalone="no"?>
<svg
   xmlns:dc="http://purl.org/dc/elements/1.1/"
   xmlns:cc="http://creativecommons.org/ns#"
   xmlns:rdf="http://www.w3.org/1999/02/22-rdf-syntax-ns#"
   xmlns:svg="http://www.w3.org/2000/svg"
   xmlns="http://www.w3.org/2000/svg"
   xmlns:sodipodi="http://sodipodi.sourceforge.net/DTD/sodipodi-0.dtd"
   xmlns:inkscape="http://www.inkscape.org/namespaces/inkscape"
   version="1.1"
   x="0px"
   y="0px"
   viewBox="0 0 96.976997 99.755997"
   enable-background="new 0 0 100 100"
   xml:space="preserve"
   id="svg8"
   sodipodi:docname="severeStorms.svg"
   width="96.976997"
   height="99.755997"
   inkscape:version="0.92.3 (2405546, 2018-03-11)"><metadata
     id="metadata14"><rdf:RDF><cc:Work
         rdf:about=""><dc:format>image/svg+xml</dc:format><dc:type
           rdf:resource="http://purl.org/dc/dcmitype/StillImage" /><dc:title></dc:title></cc:Work></rdf:RDF></metadata><defs
     id="defs12" /><sodipodi:namedview
     pagecolor="#ffffff"
     bordercolor="#666666"
     borderopacity="1"
     objecttolerance="10"
     gridtolerance="10"
     guidetolerance="10"
     inkscape:pageopacity="0"
     inkscape:pageshadow="2"
     inkscape:window-width="3000"
     inkscape:window-height="1955"
     id="namedview10"
     showgrid="false"
     fit-margin-top="0"
     fit-margin-left="0"
     fit-margin-right="0"
     fit-margin-bottom="0"
     inkscape:zoom="2.36"
     inkscape:cx="-53.205915"
     inkscape:cy="49.878"
     inkscape:window-x="-13"
     inkscape:window-y="-13"
     inkscape:window-maximized="1"
     inkscape:current-layer="svg8" /><g
     id="g6"
     transform="translate(-1.511,-0.122)"><polygon
       points="30.693,80.515 39.93,80.515 39.93,99.878 60.264,71.099 50.097,71.099 57.762,56.5 38.401,56.5 "
       id="polygon2" /><path
       d="m 87.074,28.834 c -0.152,-0.557 -0.33,-1.101 -0.531,-1.637 V 27.131 H 86.52 C 83.807,19.977 76.911,14.883 68.807,14.883 c -2.277,0 -4.451,0.422 -6.475,1.158 C 59.047,6.768 50.202,0.122 39.801,0.122 27.93,0.122 18.085,8.779 16.222,20.123 h -0.005 v 0.025 C 16.011,21.41 15.9,22.704 15.9,24.023 h 0.317 v 0.016 c -0.106,-0.002 -0.21,-0.016 -0.317,-0.016 -7.947,0 -14.389,6.442 -14.389,14.389 0,7.947 6.442,14.389 14.389,14.389 H 31 39.588 59.703 68.334 86.543 V 52.8 c 6.602,-0.029 11.945,-5.388 11.945,-11.996 0,-6.431 -5.06,-11.665 -11.414,-11.97 z"
       id="path4"
       inkscape:connector-curvature="0" /></g></svg>