<svg xmlns="http://www.w3.org/2000/svg" xmlns:xlink="http://www.w3.org/1999/xlink" version="1.1" x="0px" y="0px" viewBox="0 0 100 100" enable-background="new 0 0 100 100" xml:space="preserve"><g><polygon points="57.762,56.5 38.401,56.5 30.693,80.515 39.93,80.515 39.93,99.878 60.264,71.099 50.097,71.099  "></polygon><path d="M87.074,28.834c-0.152-0.557-0.33-1.101-0.531-1.637v-0.066H86.52c-2.713-7.154-9.609-12.248-17.713-12.248   c-2.277,0-4.451,0.422-6.475,1.158C59.047,6.768,50.202,0.122,39.801,0.122c-11.871,0-21.716,8.657-23.579,20.001h-0.005v0.025   c-0.206,1.262-0.317,2.556-0.317,3.875h0.317v0.016c-0.106-0.002-0.21-0.016-0.317-0.016c-7.947,0-14.389,6.442-14.389,14.389   c0,7.947,6.442,14.389,14.389,14.389H31h8.588h20.115h8.631h18.209V52.8c6.602-0.029,11.945-5.388,11.945-11.996   C98.488,34.373,93.428,29.139,87.074,28.834z"></path></g></svg>