<?xml version="1.0" encoding="UTF-8" standalone="no"?>
<svg
   xmlns:dc="http://purl.org/dc/elements/1.1/"
   xmlns:cc="http://creativecommons.org/ns#"
   xmlns:rdf="http://www.w3.org/1999/02/22-rdf-syntax-ns#"
   xmlns:svg="http://www.w3.org/2000/svg"
   xmlns="http://www.w3.org/2000/svg"
   xmlns:sodipodi="http://sodipodi.sourceforge.net/DTD/sodipodi-0.dtd"
   xmlns:inkscape="http://www.inkscape.org/namespaces/inkscape"
   version="1.1"
   x="0px"
   y="0px"
   viewBox="0 0 96.976997 98.647003"
   enable-background="new 0 0 100 100"
   xml:space="preserve"
   id="svg16"
   sodipodi:docname="snow.svg"
   width="96.976997"
   height="98.647003"
   inkscape:version="0.92.3 (2405546, 2018-03-11)"><metadata
     id="metadata22"><rdf:RDF><cc:Work
         rdf:about=""><dc:format>image/svg+xml</dc:format><dc:type
           rdf:resource="http://purl.org/dc/dcmitype/StillImage" /><dc:title></dc:title></cc:Work></rdf:RDF></metadata><defs
     id="defs20" /><sodipodi:namedview
     pagecolor="#ffffff"
     bordercolor="#666666"
     borderopacity="1"
     objecttolerance="10"
     gridtolerance="10"
     guidetolerance="10"
     inkscape:pageopacity="0"
     inkscape:pageshadow="2"
     inkscape:window-width="3000"
     inkscape:window-height="1955"
     id="namedview18"
     showgrid="false"
     fit-margin-top="0"
     fit-margin-left="0"
     fit-margin-right="0"
     fit-margin-bottom="0"
     inkscape:zoom="2.36"
     inkscape:cx="-53.205915"
     inkscape:cy="48.769"
     inkscape:window-x="-13"
     inkscape:window-y="-13"
     inkscape:window-maximized="1"
     inkscape:current-layer="svg16" /><path
     d="m 85.563,28.712 c -0.152,-0.557 -0.33,-1.101 -0.531,-1.637 V 27.009 H 85.009 C 82.296,19.855 75.4,14.761 67.296,14.761 c -2.277,0 -4.451,0.422 -6.475,1.158 C 57.536,6.646 48.691,0 38.29,0 26.419,0 16.574,8.657 14.711,20.001 h -0.005 v 0.025 c -0.206,1.262 -0.317,2.556 -0.317,3.875 h 0.317 v 0.016 C 14.6,23.915 14.496,23.901 14.389,23.901 6.442,23.901 0,30.343 0,38.29 0,46.237 6.442,52.679 14.389,52.679 h 15.1 8.588 20.115 8.631 18.209 v -0.001 c 6.602,-0.029 11.945,-5.388 11.945,-11.996 0,-6.431 -5.06,-11.665 -11.414,-11.97 z"
     id="path2"
     inkscape:connector-curvature="0" /><g
     id="g14"
     transform="translate(-1.511,-0.122)"><path
       d="m 12.541,65.71 0.8,1.182 h 1.49 l 0.688,-1.182 -0.725,-1.26 h -1.492 z m 0.613,9.504 v -2.672 l -1.493,0.84 -0.761,-0.435 v -0.942 l 2.215,-1.258 V 68.99 l -1.606,1.032 v -1.86 l -1.535,0.885 v 2.522 L 9.133,72.09 8.424,71.62 V 69.93 L 6.093,71.244 5.098,70.825 v -1.066 l 2.446,-1.337 -1.53,-0.77 V 66.676 L 6.882,66.2 9.077,67.493 10.6,66.613 10.563,66.586 9.004,65.692 10.518,64.754 9,63.874 6.806,65.164 5.984,64.755 V 63.781 L 7.468,62.947 5.098,61.66 v -1.065 l 0.91,-0.47 2.336,1.349 v -1.72 l 0.704,-0.475 0.863,0.498 -0.006,2.573 1.569,0.896 -0.006,-1.817 1.646,0.885 V 60.558 L 10.9,59.296 v -0.933 l 0.761,-0.44 1.493,0.84 v -2.667 l 0.854,-0.561 0.861,0.561 v 2.667 l 1.547,-0.857 0.778,0.515 v 0.84 l -2.29,1.298 v 1.756 L 16.47,61.36 v 1.911 l 1.614,-0.879 V 59.64 l 0.777,-0.362 0.817,0.362 v 1.76 l 2.403,-1.299 0.84,0.513 v 0.995 l -2.347,1.334 1.468,0.823 v 0.95 l -0.761,0.421 -2.254,-1.331 -1.558,0.988 1.507,0.939 -1.553,0.894 1.604,0.84 2.254,-1.259 0.724,0.512 v 0.908 l -1.414,0.795 2.251,1.337 v 1.05 l -0.953,0.436 -2.211,-1.259 v 1.666 l -0.795,0.443 -0.777,-0.443 v -2.528 l -1.637,-0.934 v 1.757 l -1.567,-0.956 v 1.757 l 2.215,1.258 V 73 l -0.765,0.382 -1.484,-0.84 v 2.672 l -0.861,0.555 z"
       id="path4"
       inkscape:connector-curvature="0"
       style="fill:#000000" /><path
       d="m 30.367,88.71 0.8,1.182 h 1.49 L 33.345,88.71 32.62,87.45 h -1.492 z m 0.613,9.504 v -2.672 l -1.493,0.84 -0.761,-0.435 v -0.942 l 2.215,-1.258 V 91.99 l -1.606,1.032 v -1.86 L 27.8,92.047 v 2.522 L 26.959,95.09 26.25,94.62 v -1.69 l -2.331,1.314 -0.995,-0.419 v -1.066 l 2.446,-1.337 -1.53,-0.77 v -0.976 l 0.868,-0.476 2.195,1.293 1.523,-0.88 -0.037,-0.027 -1.559,-0.894 1.514,-0.938 -1.519,-0.881 -2.194,1.29 -0.822,-0.409 V 86.78 l 1.484,-0.834 -2.37,-1.287 v -1.065 l 0.91,-0.47 2.336,1.349 v -1.72 l 0.704,-0.475 0.863,0.498 -0.006,2.573 1.569,0.896 -0.006,-1.817 1.646,0.885 v -1.756 l -2.215,-1.262 v -0.933 l 0.761,-0.44 1.493,0.84 v -2.667 l 0.854,-0.561 0.861,0.561 v 2.667 l 1.547,-0.857 0.778,0.515 v 0.84 l -2.29,1.298 v 1.756 l 1.566,-0.955 v 1.911 l 1.614,-0.879 v -2.752 l 0.777,-0.362 0.817,0.362 v 1.76 l 2.408,-1.299 0.84,0.513 v 0.995 l -2.347,1.334 1.468,0.823 v 0.95 l -0.761,0.421 -2.254,-1.331 -1.558,0.988 1.507,0.939 -1.553,0.894 1.604,0.84 2.254,-1.259 0.724,0.512 v 0.908 l -1.414,0.795 2.251,1.337 v 1.05 l -0.953,0.436 -2.211,-1.259 v 1.666 l -0.795,0.443 -0.777,-0.443 V 92.124 L 34.298,91.19 v 1.757 L 32.73,91.99 v 1.757 l 2.215,1.258 V 96 l -0.765,0.382 -1.484,-0.84 v 2.672 l -0.861,0.555 z"
       id="path6"
       inkscape:connector-curvature="0"
       style="fill:#000000" /><path
       d="m 48.867,65.71 0.799,1.182 h 1.49 l 0.688,-1.182 -0.725,-1.26 h -1.493 z m 0.613,9.504 v -2.672 l -1.493,0.84 -0.761,-0.435 v -0.942 l 2.215,-1.258 V 68.99 l -1.607,1.032 v -1.86 l -1.535,0.885 v 2.522 l -0.84,0.521 -0.71,-0.47 v -1.69 l -2.33,1.314 -0.995,-0.419 v -1.066 l 2.445,-1.337 -1.529,-0.77 v -0.976 l 0.867,-0.476 2.195,1.293 1.523,-0.88 -0.036,-0.027 -1.559,-0.894 1.513,-0.938 -1.518,-0.881 -2.195,1.29 -0.822,-0.409 V 63.78 l 1.484,-0.834 -2.369,-1.287 v -1.065 l 0.91,-0.47 2.336,1.349 v -1.72 l 0.704,-0.475 0.862,0.498 -0.006,2.573 1.57,0.896 -0.006,-1.817 1.646,0.885 v -1.756 l -2.215,-1.262 v -0.933 l 0.761,-0.44 1.493,0.84 v -2.667 l 0.854,-0.561 0.862,0.561 v 2.667 l 1.547,-0.857 0.778,0.515 v 0.84 l -2.291,1.298 v 1.756 l 1.567,-0.955 v 1.911 l 1.614,-0.879 v -2.752 l 0.777,-0.362 0.817,0.362 v 1.76 l 2.407,-1.299 0.84,0.513 v 0.995 l -2.347,1.334 1.468,0.823 v 0.95 l -0.761,0.421 -2.255,-1.331 -1.557,0.988 1.507,0.939 -1.553,0.894 1.603,0.84 2.255,-1.259 0.724,0.512 v 0.908 l -1.414,0.795 2.251,1.337 v 1.05 l -0.953,0.436 -2.211,-1.259 v 1.666 l -0.795,0.443 -0.777,-0.443 V 69.124 L 52.797,68.19 v 1.757 L 51.23,68.99 v 1.757 l 2.215,1.258 V 73 l -0.765,0.382 -1.484,-0.84 v 2.672 l -0.862,0.555 z"
       id="path8"
       inkscape:connector-curvature="0"
       style="fill:#000000" /><path
       d="m 84.52,65.71 0.799,1.182 h 1.49 l 0.688,-1.182 -0.725,-1.26 h -1.493 z m 0.613,9.504 v -2.672 l -1.493,0.84 -0.761,-0.435 v -0.942 l 2.215,-1.258 V 68.99 l -1.607,1.032 v -1.86 l -1.535,0.885 v 2.522 l -0.84,0.521 -0.709,-0.47 v -1.69 l -2.331,1.314 -0.995,-0.419 v -1.066 l 2.445,-1.337 -1.529,-0.77 v -0.976 l 0.867,-0.476 2.195,1.293 1.523,-0.88 -0.036,-0.027 -1.559,-0.894 1.513,-0.938 -1.518,-0.881 -2.195,1.29 -0.822,-0.409 V 63.78 l 1.484,-0.834 -2.369,-1.287 v -1.065 l 0.91,-0.47 2.336,1.349 v -1.72 l 0.704,-0.475 0.862,0.498 -0.006,2.573 1.57,0.896 -0.006,-1.817 1.646,0.885 v -1.756 l -2.215,-1.262 v -0.933 l 0.761,-0.44 1.493,0.84 v -2.667 l 0.854,-0.561 0.862,0.561 v 2.667 l 1.547,-0.857 0.778,0.515 v 0.84 l -2.291,1.298 v 1.756 l 1.567,-0.955 v 1.911 l 1.614,-0.879 v -2.752 l 0.777,-0.362 0.817,0.362 v 1.76 l 2.403,-1.299 0.84,0.513 v 0.995 l -2.347,1.334 1.468,0.823 v 0.95 l -0.761,0.421 -2.255,-1.331 -1.557,0.988 1.507,0.939 -1.553,0.894 1.603,0.84 2.255,-1.259 0.724,0.512 v 0.908 l -1.414,0.795 2.251,1.337 v 1.05 l -0.953,0.436 -2.211,-1.259 v 1.666 l -0.795,0.443 -0.777,-0.443 V 69.124 L 88.446,68.19 v 1.757 L 86.88,68.991 v 1.757 l 2.215,1.258 V 73 l -0.765,0.382 -1.484,-0.84 v 2.672 l -0.862,0.555 z"
       id="path10"
       inkscape:connector-curvature="0"
       style="fill:#000000" /><path
       d="m 66.693,88.71 0.799,1.182 h 1.49 L 69.67,88.71 68.945,87.45 h -1.493 z m 0.614,9.504 v -2.672 l -1.493,0.84 -0.761,-0.435 v -0.942 l 2.215,-1.258 V 91.99 l -1.607,1.032 v -1.86 l -1.535,0.885 v 2.522 l -0.84,0.521 -0.709,-0.47 v -1.69 l -2.331,1.314 -0.995,-0.419 v -1.066 l 2.445,-1.337 -1.529,-0.77 v -0.976 l 0.867,-0.476 2.195,1.293 1.523,-0.88 -0.036,-0.027 -1.559,-0.894 1.513,-0.938 -1.518,-0.881 -2.195,1.29 -0.822,-0.409 V 86.78 L 61.619,85.946 59.25,84.66 v -1.065 l 0.91,-0.47 2.336,1.349 v -1.72 l 0.704,-0.475 0.862,0.498 -0.006,2.573 1.57,0.896 -0.006,-1.817 1.646,0.885 v -1.756 l -2.215,-1.262 v -0.933 l 0.761,-0.44 1.493,0.84 v -2.667 l 0.854,-0.561 0.862,0.561 v 2.667 l 1.547,-0.857 0.778,0.515 v 0.84 l -2.291,1.298 v 1.756 l 1.567,-0.955 v 1.911 l 1.614,-0.879 V 82.64 l 0.777,-0.362 0.817,0.362 v 1.76 l 2.403,-1.299 0.84,0.513 v 0.995 l -2.347,1.334 1.468,0.823 v 0.95 l -0.761,0.421 -2.255,-1.331 -1.557,0.988 1.507,0.939 -1.553,0.894 1.603,0.84 2.255,-1.259 0.724,0.512 v 0.908 l -1.414,0.795 2.251,1.337 v 1.05 l -0.953,0.436 -2.211,-1.259 v 1.666 l -0.795,0.443 -0.777,-0.443 V 92.125 L 70.62,91.191 v 1.757 l -1.566,-0.956 v 1.757 l 2.215,1.258 V 96 l -0.765,0.382 -1.484,-0.84 v 2.672 l -0.862,0.555 z"
       id="path12"
       inkscape:connector-curvature="0"
       style="fill:#000000" /></g></svg>