<svg xmlns="http://www.w3.org/2000/svg" xmlns:xlink="http://www.w3.org/1999/xlink" version="1.1" x="0px" y="0px" viewBox="0 0 100 100" enable-background="new 0 0 100 100" xml:space="preserve"><path d="M87.074,28.834c-0.152-0.557-0.33-1.101-0.531-1.637v-0.066H86.52c-2.713-7.154-9.609-12.248-17.713-12.248  c-2.277,0-4.451,0.422-6.475,1.158C59.047,6.768,50.202,0.122,39.801,0.122c-11.871,0-21.716,8.657-23.579,20.001h-0.005v0.025  c-0.206,1.262-0.317,2.556-0.317,3.875h0.317v0.016c-0.106-0.002-0.21-0.016-0.317-0.016c-7.947,0-14.389,6.442-14.389,14.389  c0,7.947,6.442,14.389,14.389,14.389H31h8.588h20.115h8.631h18.209V52.8c6.602-0.029,11.945-5.388,11.945-11.996  C98.488,34.373,93.428,29.139,87.074,28.834z"></path><g><path fill="#000000" d="M12.541,65.71l0.8,1.182h1.49l0.688-1.182l-0.725-1.26h-1.492L12.541,65.71z M13.154,75.214   v-2.672l-1.493,0.84L10.9,72.947v-0.942l2.215-1.258V68.99l-1.606,1.032v-1.86l-1.535,0.885v2.522L9.133,72.09l-0.709-0.47v-1.69   l-2.331,1.314l-0.995-0.419v-1.066l2.446-1.337l-1.53-0.77v-0.976l0.868-0.476l2.195,1.293l1.523-0.88l-0.037-0.027l-1.559-0.894   l1.514-0.938L9,63.874l-2.194,1.29l-0.822-0.409v-0.974l1.484-0.834l-2.37-1.287v-1.065l0.91-0.47l2.336,1.349v-1.72l0.704-0.475   l0.863,0.498l-0.006,2.573l1.569,0.896l-0.006-1.817l1.646,0.885v-1.756L10.9,59.296v-0.933l0.761-0.44l1.493,0.84v-2.667   l0.854-0.561l0.861,0.561v2.667l1.547-0.857l0.778,0.515v0.84l-2.29,1.298v1.756l1.566-0.955v1.911l1.614-0.879v-2.752l0.777-0.362   l0.817,0.362v1.76l2.403-1.299l0.84,0.513v0.995l-2.347,1.334l1.468,0.823v0.95l-0.761,0.421l-2.254-1.331l-1.558,0.988   l1.507,0.939l-1.553,0.894l1.604,0.84l2.254-1.259l0.724,0.512v0.908l-1.414,0.795l2.251,1.337v1.05l-0.953,0.436l-2.211-1.259   v1.666l-0.795,0.443l-0.777-0.443v-2.528l-1.637-0.934v1.757l-1.567-0.956v1.757l2.215,1.258V73l-0.765,0.382l-1.484-0.84v2.672   l-0.861,0.555L13.154,75.214z"></path><path fill="#000000" d="M30.367,88.71l0.8,1.182h1.49l0.688-1.182l-0.725-1.26h-1.492L30.367,88.71z    M30.98,98.214v-2.672l-1.493,0.84l-0.761-0.435v-0.942l2.215-1.258V91.99l-1.606,1.032v-1.86L27.8,92.047v2.522l-0.841,0.521   l-0.709-0.47v-1.69l-2.331,1.314l-0.995-0.419v-1.066l2.446-1.337l-1.53-0.77v-0.976l0.868-0.476l2.195,1.293l1.523-0.88   l-0.037-0.027l-1.559-0.894l1.514-0.938l-1.519-0.881l-2.194,1.29l-0.822-0.409v-0.974l1.484-0.834l-2.37-1.287v-1.065l0.91-0.47   l2.336,1.349v-1.72l0.704-0.475l0.863,0.498l-0.006,2.573l1.569,0.896l-0.006-1.817l1.646,0.885v-1.756l-2.215-1.262v-0.933   l0.761-0.44l1.493,0.84v-2.667l0.854-0.561l0.861,0.561v2.667l1.547-0.857l0.778,0.515v0.84l-2.29,1.298v1.756l1.566-0.955v1.911   l1.614-0.879v-2.752l0.777-0.362l0.817,0.362v1.76L39.91,83.1l0.84,0.513v0.995l-2.347,1.334l1.468,0.823v0.95l-0.761,0.421   l-2.254-1.331l-1.558,0.988l1.507,0.939l-1.553,0.894l1.604,0.84l2.254-1.259l0.724,0.512v0.908l-1.414,0.795l2.251,1.337v1.05   l-0.953,0.436l-2.211-1.259v1.666l-0.795,0.443l-0.777-0.443v-2.528l-1.637-0.934v1.757L32.73,91.99v1.757l2.215,1.258V96   l-0.765,0.382l-1.484-0.84v2.672l-0.861,0.555L30.98,98.214z"></path><path fill="#000000" d="M48.867,65.71l0.799,1.182h1.49l0.688-1.182l-0.725-1.26h-1.493L48.867,65.71z    M49.48,75.214v-2.672l-1.493,0.84l-0.761-0.435v-0.942l2.215-1.258V68.99l-1.607,1.032v-1.86l-1.535,0.885v2.522l-0.84,0.521   l-0.71-0.47v-1.69l-2.33,1.314l-0.995-0.419v-1.066l2.445-1.337l-1.529-0.77v-0.976l0.867-0.476l2.195,1.293l1.523-0.88   l-0.036-0.027l-1.559-0.894l1.513-0.938l-1.518-0.881l-2.195,1.29l-0.822-0.409v-0.974l1.484-0.834l-2.369-1.287v-1.065l0.91-0.47   l2.336,1.349v-1.72l0.704-0.475l0.862,0.498l-0.006,2.573l1.57,0.896l-0.006-1.817l1.646,0.885v-1.756l-2.215-1.262v-0.933   l0.761-0.44l1.493,0.84v-2.667l0.854-0.561l0.862,0.561v2.667l1.547-0.857l0.778,0.515v0.84l-2.291,1.298v1.756l1.567-0.955v1.911   l1.614-0.879v-2.752l0.777-0.362l0.817,0.362v1.76L58.41,60.1l0.84,0.513v0.995l-2.347,1.334l1.468,0.823v0.95l-0.761,0.421   l-2.255-1.331l-1.557,0.988l1.507,0.939l-1.553,0.894l1.603,0.84l2.255-1.259l0.724,0.512v0.908l-1.414,0.795l2.251,1.337v1.05   l-0.953,0.436l-2.211-1.259v1.666l-0.795,0.443l-0.777-0.443v-2.528l-1.638-0.934v1.757L51.23,68.99v1.757l2.215,1.258V73   l-0.765,0.382l-1.484-0.84v2.672l-0.862,0.555L49.48,75.214z"></path><path fill="#000000" d="M84.52,65.71l0.799,1.182h1.49l0.688-1.182l-0.725-1.26h-1.493L84.52,65.71z    M85.133,75.214v-2.672l-1.493,0.84l-0.761-0.435v-0.942l2.215-1.258V68.99l-1.607,1.032v-1.86l-1.535,0.885v2.522l-0.84,0.521   l-0.709-0.47v-1.69l-2.331,1.314l-0.995-0.419v-1.066l2.445-1.337l-1.529-0.77v-0.976l0.867-0.476l2.195,1.293l1.523-0.88   l-0.036-0.027l-1.559-0.894l1.513-0.938l-1.518-0.881l-2.195,1.29l-0.822-0.409v-0.974l1.484-0.834l-2.369-1.287v-1.065l0.91-0.47   l2.336,1.349v-1.72l0.704-0.475l0.862,0.498l-0.006,2.573l1.57,0.896l-0.006-1.817l1.646,0.885v-1.756l-2.215-1.262v-0.933   l0.761-0.44l1.493,0.84v-2.667l0.854-0.561l0.862,0.561v2.667l1.547-0.857l0.778,0.515v0.84l-2.291,1.298v1.756l1.567-0.955v1.911   l1.614-0.879v-2.752l0.777-0.362l0.817,0.362v1.76l2.403-1.299l0.84,0.513v0.995l-2.347,1.334l1.468,0.823v0.95l-0.761,0.421   l-2.255-1.331l-1.557,0.988l1.507,0.939l-1.553,0.894l1.603,0.84l2.255-1.259l0.724,0.512v0.908l-1.414,0.795l2.251,1.337v1.05   l-0.953,0.436l-2.211-1.259v1.666l-0.795,0.443l-0.777-0.443v-2.528l-1.638-0.934v1.757l-1.566-0.956v1.757l2.215,1.258V73   l-0.765,0.382l-1.484-0.84v2.672l-0.862,0.555L85.133,75.214z"></path><path fill="#000000" d="M66.693,88.71l0.799,1.182h1.49l0.688-1.182l-0.725-1.26h-1.493L66.693,88.71z    M67.307,98.214v-2.672l-1.493,0.84l-0.761-0.435v-0.942l2.215-1.258V91.99l-1.607,1.032v-1.86l-1.535,0.885v2.522l-0.84,0.521   l-0.709-0.47v-1.69l-2.331,1.314l-0.995-0.419v-1.066l2.445-1.337l-1.529-0.77v-0.976l0.867-0.476l2.195,1.293l1.523-0.88   l-0.036-0.027l-1.559-0.894l1.513-0.938l-1.518-0.881l-2.195,1.29l-0.822-0.409v-0.974l1.484-0.834L59.25,84.66v-1.065l0.91-0.47   l2.336,1.349v-1.72l0.704-0.475l0.862,0.498l-0.006,2.573l1.57,0.896l-0.006-1.817l1.646,0.885v-1.756l-2.215-1.262v-0.933   l0.761-0.44l1.493,0.84v-2.667l0.854-0.561l0.862,0.561v2.667l1.547-0.857l0.778,0.515v0.84l-2.291,1.298v1.756l1.567-0.955v1.911   l1.614-0.879v-2.752l0.777-0.362l0.817,0.362v1.76l2.403-1.299l0.84,0.513v0.995l-2.347,1.334l1.468,0.823v0.95l-0.761,0.421   l-2.255-1.331l-1.557,0.988l1.507,0.939l-1.553,0.894l1.603,0.84l2.255-1.259l0.724,0.512v0.908l-1.414,0.795l2.251,1.337v1.05   l-0.953,0.436l-2.211-1.259v1.666l-0.795,0.443l-0.777-0.443v-2.528l-1.638-0.934v1.757l-1.566-0.956v1.757l2.215,1.258V96   l-0.765,0.382l-1.484-0.84v2.672l-0.862,0.555L67.307,98.214z"></path></g></svg>