<svg xmlns="http://www.w3.org/2000/svg" xmlns:xlink="http://www.w3.org/1999/xlink" version="1.1" x="0px" y="0px" viewBox="0 0 100 125" enable-background="new 0 0 100 100" xml:space="preserve"><path d="M52.673,78.798V36.113l-2.256-3.566l-0.767,0.358l-1.462-3.265l-0.862,0.87v48.287c-2.609,1.06-4.455,3.618-4.455,6.603  c0,3.93,3.198,7.128,7.128,7.128s7.128-3.198,7.128-7.128C57.128,82.417,55.282,79.858,52.673,78.798z"/><path d="M54.904,77.433l-0.003-51.52l-2.382,5.5l-2.101-3.322l-0.767,0.359l-1.466-3.274l-1.46,1.516l-1.625-1.974l-0.003,52.715  c-2.753,1.698-4.452,4.726-4.452,7.969c0,5.159,4.197,9.355,9.355,9.355c5.159,0,9.355-4.197,9.355-9.355  C59.355,82.16,57.656,79.131,54.904,77.433z M50,93.866c-4.667,0-8.465-3.797-8.465-8.465c0-3.011,1.621-5.82,4.23-7.331  l0.222-0.129l0.003-50.74l0.682,0.828l1.238-1.285l1.297,2.897l0.876-0.41l2.582,4.082l1.343-3.102l0.003,47.73l0.222,0.129  c2.609,1.511,4.23,4.32,4.23,7.331C58.465,90.069,54.667,93.866,50,93.866z"/><path d="M52.228,8.361c0-2.121-0.793-3.119-2.227-3.119c-1.574,0-2.23,0.843-2.228,3.119C47.775,10.908,50,15.935,50,15.935  S52.228,11.061,52.228,8.361z"/><path d="M46.646,21.973c0,0,0.123-5.357-0.943-7.838c-0.838-1.949-1.959-2.552-3.277-1.986c-1.447,0.622-1.716,1.655-0.816,3.745  C42.617,18.233,46.646,21.973,46.646,21.973z"/><text x="0" y="115" fill="#000000" font-size="5px" font-weight="bold" font-family="'Helvetica Neue', Helvetica, Arial-Unicode, Arial, Sans-serif">Created by emilegraphics</text><text x="0" y="120" fill="#000000" font-size="5px" font-weight="bold" font-family="'Helvetica Neue', Helvetica, Arial-Unicode, Arial, Sans-serif">from the Noun Project</text></svg>