<?xml version="1.0" encoding="UTF-8" standalone="no"?>
<svg
   xmlns:dc="http://purl.org/dc/elements/1.1/"
   xmlns:cc="http://creativecommons.org/ns#"
   xmlns:rdf="http://www.w3.org/1999/02/22-rdf-syntax-ns#"
   xmlns:svg="http://www.w3.org/2000/svg"
   xmlns="http://www.w3.org/2000/svg"
   xmlns:sodipodi="http://sodipodi.sourceforge.net/DTD/sodipodi-0.dtd"
   xmlns:inkscape="http://www.inkscape.org/namespaces/inkscape"
   version="1.1"
   x="0px"
   y="0px"
   viewBox="0 0 18.709999 89.514999"
   enable-background="new 0 0 100 100"
   xml:space="preserve"
   id="svg14"
   sodipodi:docname="temperatureExtremes.svg"
   width="18.709999"
   height="89.514999"
   inkscape:version="0.92.3 (2405546, 2018-03-11)"><metadata
     id="metadata20"><rdf:RDF><cc:Work
         rdf:about=""><dc:format>image/svg+xml</dc:format><dc:type
           rdf:resource="http://purl.org/dc/dcmitype/StillImage" /><dc:title></dc:title></cc:Work></rdf:RDF></metadata><defs
     id="defs18" /><sodipodi:namedview
     pagecolor="#ffffff"
     bordercolor="#666666"
     borderopacity="1"
     objecttolerance="10"
     gridtolerance="10"
     guidetolerance="10"
     inkscape:pageopacity="0"
     inkscape:pageshadow="2"
     inkscape:window-width="3000"
     inkscape:window-height="1955"
     id="namedview16"
     showgrid="false"
     fit-margin-top="0"
     fit-margin-left="0"
     fit-margin-right="0"
     fit-margin-bottom="0"
     inkscape:zoom="1.888"
     inkscape:cx="-117.76364"
     inkscape:cy="32.257"
     inkscape:window-x="-13"
     inkscape:window-y="-13"
     inkscape:window-maximized="1"
     inkscape:current-layer="svg14" /><path
     d="M 12.028,73.556 V 30.871 L 9.772,27.305 9.005,27.663 7.543,24.398 6.681,25.268 v 48.287 c -2.609,1.06 -4.455,3.618 -4.455,6.603 0,3.93 3.198,7.128 7.128,7.128 3.93,0 7.128,-3.198 7.128,-7.128 0.001,-2.983 -1.845,-5.542 -4.454,-6.602 z"
     id="path2"
     inkscape:connector-curvature="0" /><path
     d="m 14.259,72.191 -0.003,-51.52 -2.382,5.5 L 9.773,22.849 9.006,23.208 7.54,19.934 6.08,21.45 4.455,19.476 4.452,72.191 C 1.699,73.889 0,76.917 0,80.16 c 0,5.159 4.197,9.355 9.355,9.355 5.159,0 9.355,-4.197 9.355,-9.355 0,-3.242 -1.699,-6.271 -4.451,-7.969 z M 9.355,88.624 c -4.667,0 -8.465,-3.797 -8.465,-8.465 0,-3.011 1.621,-5.82 4.23,-7.331 l 0.222,-0.129 0.003,-50.74 0.682,0.828 1.238,-1.285 1.297,2.897 0.876,-0.41 2.582,4.082 1.343,-3.102 0.003,47.73 0.222,0.129 c 2.609,1.511 4.23,4.32 4.23,7.331 0.002,4.668 -3.796,8.465 -8.463,8.465 z"
     id="path4"
     inkscape:connector-curvature="0" /><path
     d="M 11.583,3.119 C 11.583,0.998 10.79,0 9.356,0 7.782,0 7.126,0.843 7.128,3.119 c 0.002,2.547 2.227,7.574 2.227,7.574 0,0 2.228,-4.874 2.228,-7.574 z"
     id="path6"
     inkscape:connector-curvature="0" /><path
     d="m 6.001,16.731 c 0,0 0.123,-5.357 -0.943,-7.838 C 4.22,6.944 3.099,6.341 1.781,6.907 0.334,7.529 0.065,8.562 0.965,10.652 c 1.007,2.339 5.036,6.079 5.036,6.079 z"
     id="path8"
     inkscape:connector-curvature="0" /></svg>