<?xml version="1.0" encoding="UTF-8" standalone="no"?>
<svg
   xmlns:dc="http://purl.org/dc/elements/1.1/"
   xmlns:cc="http://creativecommons.org/ns#"
   xmlns:rdf="http://www.w3.org/1999/02/22-rdf-syntax-ns#"
   xmlns:svg="http://www.w3.org/2000/svg"
   xmlns="http://www.w3.org/2000/svg"
   xmlns:sodipodi="http://sodipodi.sourceforge.net/DTD/sodipodi-0.dtd"
   xmlns:inkscape="http://www.inkscape.org/namespaces/inkscape"
   xml:space="preserve"
   version="1.1"
   style="clip-rule:evenodd;fill-rule:evenodd;image-rendering:optimizeQuality;shape-rendering:geometricPrecision;text-rendering:geometricPrecision"
   viewBox="0 0 299 203.05357"
   x="0px"
   y="0px"
   id="svg44"
   sodipodi:docname="volcanoes.svg"
   width="299"
   height="203.05357"
   inkscape:version="0.92.3 (2405546, 2018-03-11)"><metadata
     id="metadata48"><rdf:RDF><cc:Work
         rdf:about=""><dc:format>image/svg+xml</dc:format><dc:type
           rdf:resource="http://purl.org/dc/dcmitype/StillImage" /><dc:title></dc:title></cc:Work></rdf:RDF></metadata><sodipodi:namedview
     pagecolor="#ffffff"
     bordercolor="#666666"
     borderopacity="1"
     objecttolerance="10"
     gridtolerance="10"
     guidetolerance="10"
     inkscape:pageopacity="0"
     inkscape:pageshadow="2"
     inkscape:window-width="3000"
     inkscape:window-height="1955"
     id="namedview46"
     showgrid="false"
     fit-margin-top="0"
     fit-margin-left="0"
     fit-margin-right="0"
     fit-margin-bottom="0"
     inkscape:zoom="0.93004926"
     inkscape:cx="-91.885064"
     inkscape:cy="76.125"
     inkscape:window-x="-13"
     inkscape:window-y="-13"
     inkscape:window-maximized="1"
     inkscape:current-layer="svg44" /><defs
     id="defs4"><style
       type="text/css"
       id="style2">
   
    .fil0 {fill:black}
   
  </style></defs><g
     id="g38"
     transform="translate(0,0.05357143)"><path
       class="fil0"
       d="m 0,203 c 43,-24 107,-72 119,-103 4,3 12,12 15,15 -1,4 -3,8 -5,13 -3,3 -6,5 -9,8 -2,4 -4,7 -5,10 2,-3 4,-6 7,-9 5,-4 10,-8 15,-13 0,2 1,3 1,5 5,2 10,4 16,6 0,3 0,5 0,8 -4,5 -8,10 -12,15 4,-3 8,-7 13,-10 0,6 1,13 1,19 1,-11 2,-22 3,-34 -4,-2 -7,-4 -11,-6 4,-3 8,-5 12,-7 3,1 5,1 7,2 1,4 3,8 4,13 1,2 3,3 5,5 0,5 0,10 1,15 0,-6 1,-11 2,-17 -3,-3 -5,-6 -7,-9 0,-6 1,-11 1,-17 4,-4 8,-8 11,-12 5,11 14,9 21,13 11,29 56,65 94,90 -100,0 -199,0 -299,0 z"
       id="path6"
       inkscape:connector-curvature="0"
       style="fill:#000000" /><path
       class="fil0"
       d="m 212,60 c -4,17 -24,23 -37,12 -3,2 -18,5 -21,-9 1,15 18,12 20,11 -7,16 -30,15 -36,-2 C 124,85 105,83 96,73 86,62 86,43 101,31 95,8 124,-7 140,10 c 0,0 -5,3 -8,13 -5,-3 -15,-5 -22,6 9,-10 17,-8 22,-5 0,1 -1,6 -1,7 4,-24 20,-24 26,-22 10,-13 30,-12 38,3 18,-12 37,-1 42,13 5,15 -4,33 -25,35 z"
       id="path8"
       inkscape:connector-curvature="0"
       style="fill:#000000" /><path
       class="fil0"
       d="m 145,96 c -4,-11 -11,-16 -8,-18 3,-2 6,9 8,18 z"
       id="path10"
       inkscape:connector-curvature="0"
       style="fill:#000000" /><path
       class="fil0"
       d="m 169,101 c 3,-11 6,-19 12,-18 2,0 -8,9 -12,18 z"
       id="path12"
       inkscape:connector-curvature="0"
       style="fill:#000000" /><path
       class="fil0"
       d="m 154,108 c -1,-8 -5,-19 -1,-20 5,-2 2,11 1,20 z"
       id="path14"
       inkscape:connector-curvature="0"
       style="fill:#000000" /><path
       class="fil0"
       d="M 129,101 C 107,77 85,87 87,81 c 1,-6 26,-1 42,20 z"
       id="path16"
       inkscape:connector-curvature="0"
       style="fill:#000000" /><path
       class="fil0"
       d="m 189,101 c 22,-24 43,-14 42,-20 -2,-6 -26,-1 -42,20 z"
       id="path18"
       inkscape:connector-curvature="0"
       style="fill:#000000" /><path
       class="fil0"
       d="m 166,114 c 11,-25 32,-23 29,-27 -3,-5 -22,6 -29,27 z"
       id="path20"
       inkscape:connector-curvature="0"
       style="fill:#000000" /><path
       class="fil0"
       d="M 154,117 C 143,93 122,95 125,91 c 3,-6 22,5 29,26 z"
       id="path22"
       inkscape:connector-curvature="0"
       style="fill:#000000" /><circle
       class="fil0"
       cx="82"
       cy="69"
       r="3"
       id="circle24"
       style="fill:#000000" /><circle
       class="fil0"
       cx="162"
       cy="103"
       r="3"
       id="circle26"
       style="fill:#000000" /><circle
       class="fil0"
       cx="219"
       cy="68"
       r="5"
       id="circle28"
       style="fill:#000000" /><circle
       class="fil0"
       cx="249"
       cy="62"
       r="5"
       id="circle30"
       style="fill:#000000" /><circle
       class="fil0"
       cx="220"
       cy="97"
       r="5"
       id="circle32"
       style="fill:#000000" /><circle
       class="fil0"
       cx="143"
       cy="118"
       r="4"
       id="circle34"
       style="fill:#000000" /><circle
       class="fil0"
       cx="94"
       cy="102"
       r="5"
       id="circle36"
       style="fill:#000000" /></g></svg>