<svg xmlns="http://www.w3.org/2000/svg" xmlns:xlink="http://www.w3.org/1999/xlink" viewBox="0 0 100 125" version="1.1" x="0px" y="0px"><title>ic-15</title><desc>Created with Sketch.</desc><g stroke="none" stroke-width="1" fill="none" fill-rule="evenodd"><path d="M31.9425441,44.0106087 C36.9121325,31.1205851 45.0176108,21.0741228 50.0403499,15.6586593 C55.0502934,20.9894754 63.1045896,30.8873127 68.0535082,43.7665093 C68.7838379,45.6671382 69.4452686,47.6337133 70.0200833,49.6593446 L29.961205,49.9300194 C30.5399568,47.8984824 31.2053245,45.9220646 31.9425441,44.0106087 M78.796835,58.4587346 L90.5972698,58.3790086 C93.0441695,58.3642445 95.0146817,56.3691256 94.9999176,53.9232101 C94.9851535,51.4861531 93.0067672,49.5205623 90.572663,49.5205623 L90.5441191,49.5205623 L77.1481798,49.6111153 C76.6343899,47.5904053 76.040874,45.6257988 75.3814119,43.7172957 C67.4157001,20.6518702 49.9999947,6 49.9999947,6 C49.9999947,6 32.5281858,21.038689 24.5792067,44.0608066 C23.9167918,45.9791524 23.3203231,47.9526173 22.8065332,49.9782487 L9.40271967,50.0688017 C6.95581995,50.0835658 4.98629206,52.0777005 5.00007187,54.5246002 C5.00991459,56.1909724 5.94005145,57.6378519 7.30523645,58.3849142 C7.9351704,58.7303936 8.65959446,58.927248 9.42831074,58.927248 L9.45685462,58.927248 L21.1677206,58.847522 C20.9423224,60.7816161 20.8055086,62.7521283 20.7572793,64.7561057 C20.7444837,65.2610371 20.7179084,65.7600629 20.7179084,66.2689314 C20.7179084,81.8971992 34.3717269,94.566746 49.9999947,94.566746 C65.6282625,94.566746 79.2820811,81.8971992 79.2820811,66.2689314 C79.2820811,65.6271862 79.2525529,64.996268 79.2338517,64.3614127 C79.1747954,62.356451 79.0281389,60.3879074 78.796835,58.4587346" fill="#000000"/></g><text x="0" y="115" fill="#000000" font-size="5px" font-weight="bold" font-family="'Helvetica Neue', Helvetica, Arial-Unicode, Arial, Sans-serif">Created by Marek Polakovic</text><text x="0" y="120" fill="#000000" font-size="5px" font-weight="bold" font-family="'Helvetica Neue', Helvetica, Arial-Unicode, Arial, Sans-serif">from the Noun Project</text></svg>