<?xml version="1.0" encoding="UTF-8" standalone="no"?>
<svg
   xmlns:dc="http://purl.org/dc/elements/1.1/"
   xmlns:cc="http://creativecommons.org/ns#"
   xmlns:rdf="http://www.w3.org/1999/02/22-rdf-syntax-ns#"
   xmlns:svg="http://www.w3.org/2000/svg"
   xmlns="http://www.w3.org/2000/svg"
   xmlns:sodipodi="http://sodipodi.sourceforge.net/DTD/sodipodi-0.dtd"
   xmlns:inkscape="http://www.inkscape.org/namespaces/inkscape"
   viewBox="0 0 90 88.56675"
   version="1.1"
   x="0px"
   y="0px"
   id="svg14"
   sodipodi:docname="waterColor.svg"
   width="90"
   height="88.56675"
   inkscape:version="0.92.3 (2405546, 2018-03-11)">
  <metadata
     id="metadata20">
    <rdf:RDF>
      <cc:Work
         rdf:about="">
        <dc:format>image/svg+xml</dc:format>
        <dc:type
           rdf:resource="http://purl.org/dc/dcmitype/StillImage" />
        <dc:title>ic-15</dc:title>
      </cc:Work>
    </rdf:RDF>
  </metadata>
  <defs
     id="defs18" />
  <sodipodi:namedview
     pagecolor="#ffffff"
     bordercolor="#666666"
     borderopacity="1"
     objecttolerance="10"
     gridtolerance="10"
     guidetolerance="10"
     inkscape:pageopacity="0"
     inkscape:pageshadow="2"
     inkscape:window-width="3000"
     inkscape:window-height="1955"
     id="namedview16"
     showgrid="false"
     fit-margin-top="0"
     fit-margin-left="0"
     fit-margin-right="0"
     fit-margin-bottom="0"
     inkscape:zoom="1.888"
     inkscape:cx="-82.118644"
     inkscape:cy="32.066746"
     inkscape:window-x="-13"
     inkscape:window-y="-13"
     inkscape:window-maximized="1"
     inkscape:current-layer="svg14" />
  <title
     id="title2">ic-15</title>
  <desc
     id="desc4">Created with Sketch.</desc>
  <g
     id="g8"
     style="fill:none;fill-rule:evenodd;stroke:none;stroke-width:1"
     transform="translate(-5,-6)">
    <path
       d="m 31.942544,44.010609 c 4.969588,-12.890024 13.075067,-22.936486 18.097806,-28.35195 5.009943,5.330816 13.06424,15.228654 18.013158,28.10785 0.73033,1.900629 1.391761,3.867204 1.966575,5.892836 l -40.058878,0.270674 c 0.578752,-2.031537 1.244119,-4.007954 1.981339,-5.91941 m 46.854291,14.448126 11.800435,-0.07973 c 2.446899,-0.01477 4.417412,-2.009883 4.402648,-4.455799 -0.01476,-2.437057 -1.993151,-4.402648 -4.427255,-4.402648 h -0.02854 L 77.14818,49.611115 C 76.63439,47.590405 76.040874,45.625799 75.381412,43.717296 67.4157,20.65187 49.999995,6 49.999995,6 c 0,0 -17.471809,15.038689 -25.420788,38.060807 -0.662415,1.918345 -1.258884,3.89181 -1.772674,5.917442 L 9.4027197,50.068802 C 6.95582,50.083566 4.9862921,52.0777 5.0000719,54.5246 c 0.00984,1.666372 0.9399796,3.113252 2.3051645,3.860314 0.629934,0.34548 1.3543581,0.542334 2.1230743,0.542334 h 0.028544 l 11.7108663,-0.07973 c -0.225399,1.934094 -0.362212,3.904606 -0.410442,5.908584 -0.0128,0.504931 -0.03937,1.003957 -0.03937,1.512825 0,15.628268 13.653819,28.297815 29.282087,28.297815 15.628268,0 29.282086,-12.669547 29.282086,-28.297815 0,-0.641745 -0.02953,-1.272663 -0.04823,-1.907518 -0.05906,-2.004962 -0.205713,-3.973506 -0.437017,-5.902678"
       id="path6"
       inkscape:connector-curvature="0"
       style="fill:#000000" />
  </g>
</svg>
