<?xml version="1.0" encoding="UTF-8" standalone="no"?>
<svg
   xmlns:dc="http://purl.org/dc/elements/1.1/"
   xmlns:cc="http://creativecommons.org/ns#"
   xmlns:rdf="http://www.w3.org/1999/02/22-rdf-syntax-ns#"
   xmlns:svg="http://www.w3.org/2000/svg"
   xmlns="http://www.w3.org/2000/svg"
   xmlns:sodipodi="http://sodipodi.sourceforge.net/DTD/sodipodi-0.dtd"
   xmlns:inkscape="http://www.inkscape.org/namespaces/inkscape"
   xml:space="preserve"
   version="1.1"
   style="clip-rule:evenodd;fill-rule:evenodd;image-rendering:optimizeQuality;shape-rendering:geometricPrecision;text-rendering:geometricPrecision"
   viewBox="0 0 610 775"
   x="0px"
   y="0px"
   id="svg14"
   sodipodi:docname="wildfires.svg"
   width="610"
   height="775"
   inkscape:version="0.92.3 (2405546, 2018-03-11)"><metadata
     id="metadata18"><rdf:RDF><cc:Work
         rdf:about=""><dc:format>image/svg+xml</dc:format><dc:type
           rdf:resource="http://purl.org/dc/dcmitype/StillImage" /><dc:title></dc:title></cc:Work></rdf:RDF></metadata><sodipodi:namedview
     pagecolor="#ffffff"
     bordercolor="#666666"
     borderopacity="1"
     objecttolerance="10"
     gridtolerance="10"
     guidetolerance="10"
     inkscape:pageopacity="0"
     inkscape:pageshadow="2"
     inkscape:window-width="3000"
     inkscape:window-height="1955"
     id="namedview16"
     showgrid="false"
     fit-margin-top="0"
     fit-margin-left="0"
     fit-margin-right="0"
     fit-margin-bottom="0"
     inkscape:zoom="0.2436129"
     inkscape:cx="-680.16949"
     inkscape:cy="290.625"
     inkscape:window-x="-13"
     inkscape:window-y="-13"
     inkscape:window-maximized="1"
     inkscape:current-layer="svg14" /><defs
     id="defs4"><style
       type="text/css"
       id="style2">
   
    .fil0 {fill:black}
   
  </style></defs><g
     id="g8"><path
       class="fil0"
       d="m 242,0 59,79 58,80 h -75 l 38,47 c 26,32 53,65 79,97 h -26 l -43,-42 11,42 h -25 l 25,29 9,10 c 10,82 -35,178 -74,245 -10,14 -14,31 -14,49 0,29 11,58 29,83 7,21 15,40 15,56 h -61 -9 -61 c 0,-31 30,-75 30,-123 V 593 H 0 l 121,-135 9,-10 H 42 c 33,-39 67,-78 100,-116 l 25,-29 H 84 c 26,-32 53,-65 79,-97 l 38,-47 h -75 l 58,-80 z m 177,370 c 12,-30 19,-73 15,-127 130,99 176,280 176,366 0,114 -84,169 -195,165 -67,-2 -134,-72 -134,-138 0,-15 3,-28 11,-41 64,-109 92,-204 72,-279 z m -12,369 c -48,-4 -97,-62 -95,-110 3,-48 56,-28 94,-145 10,11 19,21 26,31 14,-19 27,-46 40,-85 72,85 92,128 89,186 -4,78 -46,132 -154,123 z"
       id="path6"
       inkscape:connector-curvature="0"
       style="fill:#000000" /></g></svg>