<svg xmlns="http://www.w3.org/2000/svg" xmlns:xlink="http://www.w3.org/1999/xlink" xml:space="preserve" version="1.1" style="shape-rendering:geometricPrecision;text-rendering:geometricPrecision;image-rendering:optimizeQuality;" viewBox="0 0 610 968.75" x="0px" y="0px" fill-rule="evenodd" clip-rule="evenodd"><defs><style type="text/css">
   
    .fil0 {fill:black}
   
  </style></defs><g><path class="fil0" d="M242 0l59 79 58 80 -75 0 38 47c26,32 53,65 79,97l-26 0 -43 -42 11 42 -25 0 25 29 9 10c10,82 -35,178 -74,245 -10,14 -14,31 -14,49 0,29 11,58 29,83 7,21 15,40 15,56l-61 0 -9 0 -61 0c0,-31 30,-75 30,-123l0 -59 -207 0 121 -135 9 -10 -88 0c33,-39 67,-78 100,-116l25 -29 -83 0c26,-32 53,-65 79,-97l38 -47 -75 0 58 -80 58 -79zm177 370c12,-30 19,-73 15,-127 130,99 176,280 176,366 0,114 -84,169 -195,165 -67,-2 -134,-72 -134,-138 0,-15 3,-28 11,-41 64,-109 92,-204 72,-279l55 54zm-12 369c-48,-4 -97,-62 -95,-110 3,-48 56,-28 94,-145 10,11 19,21 26,31 14,-19 27,-46 40,-85 72,85 92,128 89,186 -4,78 -46,132 -154,123z"/></g><text x="0" y="790" fill="#000000" font-size="5px" font-weight="bold" font-family="'Helvetica Neue', Helvetica, Arial-Unicode, Arial, Sans-serif">Created by Claudia Revalina</text><text x="0" y="795" fill="#000000" font-size="5px" font-weight="bold" font-family="'Helvetica Neue', Helvetica, Arial-Unicode, Arial, Sans-serif">from the Noun Project</text></svg>